<svg width="302" height="276" viewBox="0 0 302 276" fill="none" xmlns="http://www.w3.org/2000/svg">
    <path opacity="0.1" d="M152.5 244C235.067 244 302 238.851 302 232.5C302 226.149 235.067 221 152.5 221C69.9334 221 3 226.149 3 232.5C3 238.851 69.9334 244 152.5 244Z" fill="#4056A1"/>
    <path opacity="0.1" d="M110 17.0588C108.631 16.8066 107.216 16.9564 105.936 17.4891C105.168 17.8214 104.336 17.9932 103.495 17.9932C102.654 17.9932 101.823 17.8214 101.054 17.4891C100.147 17.1027 99.163 16.9125 98.1719 16.9316C97.1808 16.9508 96.2059 17.1788 95.3145 17.6C94.8055 17.861 94.2389 17.9983 93.6632 18C91.3368 18 89.4016 15.7244 89 12.7227C89.4639 12.3926 89.8586 11.9796 90.1632 11.5059C91.5272 9.37143 93.6251 8 96.0104 8C98.3956 8 100.473 9.34454 101.837 11.4655C102.244 12.1025 102.814 12.6269 103.49 12.9884C104.167 13.3498 104.928 13.5362 105.7 13.5294H105.763C107.597 13.5193 109.2 14.9613 110 17.0588Z" fill="#4056A1"/>
    <path opacity="0.1" d="M117.006 8.29905L113.256 10.6905L115.531 6.52539C114.886 6.00852 114.088 5.72271 113.263 5.71319H113.204C112.944 5.71639 112.684 5.69664 112.428 5.65418L111.154 6.46639L111.699 5.47022C110.802 5.15613 110.024 4.56749 109.476 3.78681L107.194 5.22031L108.63 2.5928C107.301 0.98575 105.506 0 103.534 0C101.17 0 99.0464 1.41615 97.7 3.6202C97.2971 4.27854 96.7281 4.81798 96.0508 5.18375C95.3736 5.54951 94.612 5.72858 93.8437 5.70278H93.7297C91.1198 5.70278 89 8.67738 89 12.3531C89 16.0289 91.1198 19 93.7297 19C94.3038 18.9982 94.8689 18.8565 95.3765 18.587C96.2654 18.1517 97.2378 17.9163 98.2263 17.8971C99.2148 17.8779 100.196 18.0754 101.101 18.4759C101.867 18.818 102.696 18.9948 103.534 18.9948C104.373 18.9948 105.202 18.818 105.968 18.4759C106.866 18.0839 107.838 17.891 108.817 17.9101C109.795 17.9293 110.758 18.1601 111.641 18.587C112.144 18.8493 112.703 18.9873 113.27 18.9896C115.884 18.9896 118 16.015 118 12.3427C118.009 10.9326 117.667 9.54249 117.006 8.29905Z" fill="#4056A1"/>
    <path opacity="0.1" d="M30 67.6094C28.0452 67.2323 26.0245 67.4559 24.1946 68.2517C23.0964 68.7481 21.9079 69.003 20.7067 69C19.5054 68.9969 18.3182 68.736 17.2225 68.2341C15.9259 67.6545 14.5213 67.3692 13.1058 67.3978C11.6904 67.4264 10.2979 67.7684 9.02493 68.4C8.29686 68.791 7.48688 68.9969 6.66397 69C3.34064 69 0.57466 65.587 0 61.0835C0.664084 60.5902 1.22833 59.9706 1.66167 59.2588C3.61066 56.0576 6.62936 54 10.0185 54C13.4076 54 16.3882 56.0329 18.3268 59.1988C18.9094 60.1583 19.7258 60.9477 20.6964 61.4901C21.6671 62.0326 22.7589 62.3095 23.8657 62.2941H23.9522C26.5763 62.2906 28.868 64.4541 30 67.6094Z" fill="#4056A1"/>
    <path opacity="0.1" d="M40.585 53.2214L35.1531 56.7428L38.4501 50.6125C37.5157 49.8498 36.3591 49.4279 35.1636 49.4136H35.0761C34.6987 49.4192 34.3216 49.3905 33.9492 49.3277L32.1152 50.5409L32.9062 49.0736C31.6011 48.6073 30.4739 47.7303 29.6863 46.5685L26.3894 48.7157L28.4648 44.8149C26.5364 42.4494 23.9394 41 21.0835 41C17.6571 41 14.6051 43.0828 12.6347 46.3287C12.0511 47.3027 11.2253 48.1011 10.2416 48.6424C9.25784 49.1837 8.15132 49.4486 7.03483 49.41H6.84933C3.06593 49.41 0 53.794 0 59.205C0 64.616 3.06593 69 6.84933 69C7.68184 68.9977 8.50121 68.7876 9.23628 68.388C10.5235 67.7482 11.9314 67.4021 13.3625 67.3736C14.7935 67.3452 16.2135 67.6352 17.5241 68.2234C18.6319 68.7323 19.8321 68.9969 21.0466 69C22.2611 69.0031 23.4626 68.7446 24.5729 68.2413C25.8738 67.6639 27.281 67.3795 28.6989 67.4073C30.1169 67.4351 31.5124 67.7744 32.7907 68.4023C33.5188 68.792 34.3279 68.9969 35.1496 69C38.9331 69 41.999 64.6125 41.999 59.205C42.0254 57.1208 41.5391 55.0633 40.585 53.2214Z" fill="#4056A1"/>
    <path opacity="0.1" d="M251 32.0604C252.369 31.8088 253.784 31.9583 255.064 32.4899C255.832 32.8219 256.663 32.9934 257.503 32.9934C258.344 32.9934 259.175 32.8219 259.942 32.4899C260.85 32.1042 261.834 31.9143 262.825 31.9334C263.816 31.9525 264.791 32.1802 265.682 32.6007C266.191 32.8609 266.758 32.9979 267.333 33C269.66 33 271.598 30.7282 272 27.7315C271.535 27.4028 271.14 26.9904 270.837 26.5168C269.48 24.3792 267.358 23 264.979 23C262.601 23 260.52 24.3423 259.156 26.4597C258.749 27.0985 258.179 27.6246 257.501 27.9873C256.823 28.3501 256.06 28.537 255.286 28.5302H255.227C253.385 28.5268 251.779 29.9664 251 32.0604Z" fill="#4056A1"/>
    <path opacity="0.1" d="M242.974 21.2817L246.723 23.6662L244.445 19.5011C245.09 18.9847 245.888 18.6989 246.713 18.6889H246.775C247.035 18.6919 247.295 18.6722 247.552 18.6299L248.822 19.4421L248.277 18.4459C249.181 18.1371 249.966 17.5507 250.521 16.7695L252.796 18.2203L251.356 15.5928C252.689 13.9858 254.464 13 256.455 13C258.82 13 260.943 14.4161 262.29 16.6202C262.692 17.2788 263.261 17.8184 263.939 18.1842C264.616 18.55 265.378 18.7289 266.146 18.7028H266.27C268.884 18.7028 271 21.6774 271 25.3531C271 29.0289 268.884 32 266.27 32C265.696 31.9974 265.132 31.8557 264.624 31.587C263.735 31.1517 262.762 30.9163 261.774 30.8971C260.785 30.8779 259.805 31.0754 258.9 31.4759C258.134 31.8179 257.305 31.9947 256.468 31.9947C255.63 31.9947 254.801 31.8179 254.035 31.4759C253.137 31.0839 252.165 30.8909 251.186 30.91C250.206 30.9292 249.243 31.1601 248.36 31.587C247.856 31.8497 247.298 31.9877 246.73 31.9896C244.12 31.9896 242.001 29.015 242.001 25.3427C241.982 23.9285 242.317 22.5322 242.974 21.2817Z" fill="#4056A1"/>
    <path opacity="0.1" d="M204.5 273C226.868 273 245 269.866 245 266C245 262.134 226.868 259 204.5 259C182.132 259 164 262.134 164 266C164 269.866 182.132 273 204.5 273Z" fill="#4056A1"/>
    <path d="M184 233L121 232.193L121.187 230.581L124.231 204H179.559L183.629 230.581L183.94 232.598L184 233Z" fill="#ABBAF5"/>
    <path opacity="0.1" d="M184 232H152.532L121 231.598L121.188 230H183.689L184 232Z" fill="black"/>
    <path d="M193 231H110V233H193V231Z" fill="#ABBAF5"/>
    <path d="M272 44.2466C272.005 42.861 271.461 41.5302 270.487 40.5464C269.514 39.5627 268.191 39.0065 266.809 39H35.1914C34.5064 39.0032 33.8288 39.1417 33.1972 39.4074C32.5656 39.6732 31.9924 40.0611 31.5104 40.5489C31.0283 41.0368 30.6468 41.615 30.3877 42.2507C30.1285 42.8863 29.9968 43.5669 30.0001 44.2536V185H272V44.2466Z" fill="#3F3D56"/>
    <path d="M30 184V200.721C30 202.121 30.5469 203.464 31.5205 204.454C32.4941 205.444 33.8145 206 35.1913 206H266.809C268.186 206 269.506 205.444 270.479 204.454C271.453 203.464 272 202.121 272 200.721V184H30Z" fill="#ABBAF5"/>
    <path d="M263 48H40V175H263V48Z" fill="white"/>
    <path d="M152.496 199C153.33 199.001 154.153 198.812 154.903 198.449C155.653 198.085 156.311 197.555 156.826 196.9C156.982 196.701 157.125 196.491 157.254 196.273L154.231 195.763L157.497 195.784C157.81 195.104 157.981 194.367 157.998 193.619C158.016 192.87 157.881 192.126 157.6 191.432L153.221 193.699L157.261 190.733C156.882 190.081 156.372 189.515 155.764 189.068C155.156 188.622 154.463 188.305 153.727 188.138C152.992 187.97 152.229 187.955 151.488 188.095C150.746 188.234 150.041 188.524 149.416 188.946C148.792 189.369 148.261 189.916 147.856 190.552C147.452 191.189 147.183 191.901 147.066 192.646C146.95 193.39 146.987 194.151 147.177 194.88C147.367 195.61 147.705 196.293 148.17 196.886C148.683 197.543 149.34 198.075 150.089 198.441C150.839 198.808 151.662 198.999 152.496 199Z" fill="#4056A1"/>
    <path opacity="0.1" d="M158 206L183 231L179.163 206H158Z" fill="black"/>
    <path opacity="0.1" d="M264 48H40V56H264V48Z" fill="#444053"/>
    <path opacity="0.3" d="M183.797 50H117.203C117.091 50 117 50.0812 117 50.1814V53.8186C117 53.9188 117.091 54 117.203 54H183.797C183.909 54 184 53.9188 184 53.8186V50.1814C184 50.0812 183.909 50 183.797 50Z" fill="#4056A1"/>
    <path d="M182.137 51.8794H181.999L181.949 51.8353C182.12 51.6296 182.213 51.3705 182.213 51.1029C182.211 50.8833 182.145 50.6691 182.022 50.4874C181.899 50.3057 181.725 50.1645 181.523 50.0818C181.32 49.9991 181.098 49.9785 180.884 50.0227C180.67 50.0668 180.474 50.1737 180.32 50.3298C180.166 50.4859 180.062 50.6843 180.02 50.8999C179.979 51.1155 180.001 51.3387 180.086 51.5413C180.17 51.7439 180.313 51.9168 180.495 52.0382C180.677 52.1596 180.891 52.2241 181.109 52.2235C181.376 52.2226 181.634 52.1279 181.838 51.9559L181.888 52V52.1382L182.745 53L183 52.7412L182.137 51.8794ZM181.109 51.8794C180.956 51.88 180.807 51.835 180.679 51.75C180.552 51.665 180.452 51.544 180.393 51.4021C180.334 51.2603 180.319 51.1041 180.348 50.9533C180.378 50.8025 180.451 50.6638 180.559 50.5549C180.667 50.4461 180.805 50.3718 180.955 50.3416C181.104 50.3114 181.26 50.3266 181.401 50.3853C181.543 50.444 181.664 50.5435 181.749 50.6713C181.834 50.799 181.879 50.9492 181.879 51.1029C181.88 51.2049 181.86 51.306 181.822 51.4003C181.784 51.4947 181.727 51.5805 181.655 51.6527C181.584 51.7249 181.499 51.7821 181.405 51.821C181.311 51.86 181.211 51.8798 181.109 51.8794Z" fill="#3F3D56"/>
    <path d="M164 102.635C160.923 98.5669 156.463 96 151.5 96C146.537 96 142.077 98.5669 139 102.635C139.68 104.295 140.687 105.803 141.961 107.071C143.536 108.636 145.475 109.79 147.606 110.429C149.738 111.068 151.995 111.173 154.177 110.733C156.359 110.294 158.397 109.325 160.111 107.912C161.825 106.499 163.161 104.686 164 102.635Z" fill="#F13C1F"/>
    <path d="M137.437 104.836C137.219 104.742 137.012 104.625 136.82 104.486C136.529 104.249 136.296 103.949 136.139 103.609C136.34 103.198 136.424 102.74 136.383 102.285C136.342 101.83 136.177 101.395 135.905 101.026C135.634 100.657 135.267 100.37 134.844 100.194C134.42 100.018 133.957 99.9601 133.503 100.027C133.049 100.094 132.622 100.284 132.269 100.574C131.915 100.865 131.648 101.247 131.496 101.678C131.344 102.109 131.313 102.574 131.406 103.021C131.499 103.468 131.714 103.882 132.026 104.217C132.202 104.403 132.402 104.564 132.622 104.696C132.908 104.86 133.14 105.103 133.292 105.395C133.58 105.972 133.975 106.49 134.458 106.919C134.953 107.342 135.487 107.717 136.055 108.038C135.274 110.238 134.831 112.543 134.742 114.875C133.834 114.891 132.934 115.035 132.068 115.305C131.624 115.443 131.206 115.65 130.829 115.92C130.727 115.908 130.626 115.901 130.523 115.9C130.063 115.9 129.611 116.025 129.217 116.262C128.823 116.5 128.502 116.84 128.288 117.246C128.074 117.653 127.976 118.11 128.005 118.567C128.033 119.025 128.187 119.467 128.449 119.844C128.711 120.221 129.072 120.519 129.492 120.707C129.912 120.894 130.376 120.964 130.833 120.907C131.29 120.851 131.723 120.671 132.085 120.388C132.446 120.104 132.723 119.727 132.885 119.297C132.985 119.02 133.159 118.776 133.389 118.591C133.618 118.406 133.895 118.288 134.187 118.249C134.403 118.223 134.62 118.209 134.837 118.207C135.138 121.496 136.163 124.679 137.837 127.53C136.349 128.68 135.433 129.935 135.047 131.326C134.975 131.366 134.908 131.414 134.847 131.47C134.741 131.552 134.643 131.643 134.552 131.742C134.252 132.072 134.044 132.475 133.952 132.91C133.859 133.346 133.884 133.798 134.025 134.221C134.166 134.643 134.417 135.021 134.752 135.315C135.088 135.609 135.496 135.809 135.934 135.894C136.373 135.98 136.827 135.947 137.249 135.8C137.671 135.653 138.046 135.397 138.335 135.058C138.625 134.719 138.819 134.309 138.898 133.871C138.976 133.433 138.936 132.981 138.781 132.564C138.667 132.26 138.645 131.93 138.718 131.614C138.791 131.298 138.956 131.011 139.192 130.788C139.361 130.631 139.543 130.463 139.789 130.277C142.635 133.588 146.022 135.71 150.251 135.962V113.501C144.66 113.197 139.789 109.572 137.437 104.836ZM172.473 115.924C172.371 115.925 172.269 115.932 172.168 115.945C171.787 115.681 171.37 115.474 170.929 115.33C170.063 115.059 169.162 114.914 168.255 114.9C168.157 112.57 167.715 110.267 166.942 108.066C167.509 107.745 168.044 107.37 168.539 106.947C169.037 106.493 169.446 105.952 169.746 105.349C169.887 105.088 170.103 104.875 170.368 104.738C170.796 104.498 171.144 104.139 171.37 103.704C171.596 103.27 171.69 102.779 171.639 102.293C171.589 101.806 171.397 101.345 171.087 100.965C170.777 100.586 170.362 100.305 169.894 100.157C169.426 100.009 168.925 100.001 168.452 100.133C167.979 100.265 167.555 100.532 167.233 100.901C166.91 101.27 166.703 101.725 166.636 102.21C166.57 102.694 166.647 103.188 166.858 103.629C166.703 103.971 166.47 104.272 166.177 104.507C165.98 104.669 165.774 104.82 165.559 104.958C163.208 109.691 158.34 113.215 152.757 113.519V136C156.968 135.748 160.376 133.616 163.219 130.316C163.44 130.491 163.626 130.648 163.784 130.795C164.03 131.022 164.203 131.317 164.282 131.642C164.361 131.968 164.341 132.309 164.226 132.623C164.072 133.04 164.033 133.491 164.111 133.928C164.19 134.366 164.383 134.775 164.673 135.113C164.962 135.452 165.336 135.708 165.757 135.855C166.178 136.002 166.631 136.036 167.069 135.951C167.507 135.867 167.915 135.669 168.251 135.376C168.587 135.083 168.839 134.707 168.981 134.286C169.123 133.864 169.15 133.413 169.059 132.978C168.969 132.543 168.764 132.139 168.465 131.809C168.375 131.71 168.276 131.618 168.171 131.536C168.055 131.445 167.971 131.393 167.971 131.393C167.584 129.994 166.672 128.746 165.163 127.596C166.838 124.745 167.862 121.562 168.164 118.273C168.371 118.276 168.579 118.29 168.785 118.315C169.084 118.354 169.367 118.471 169.604 118.656C169.842 118.84 170.025 119.085 170.136 119.364C170.346 119.896 170.731 120.34 171.229 120.625C171.727 120.909 172.307 121.015 172.873 120.926C173.44 120.837 173.959 120.559 174.346 120.136C174.732 119.713 174.961 119.172 174.997 118.602C175.014 118.259 174.962 117.917 174.844 117.595C174.725 117.273 174.543 116.978 174.307 116.728C174.071 116.478 173.788 116.278 173.472 116.14C173.157 116.002 172.818 115.928 172.473 115.924Z" fill="#F13C1F"/>
    <path d="M227.857 262.049C227.652 261.725 227.393 261.439 227.091 261.201C225.546 259.748 224.829 257.616 224.447 255.526C224.065 253.435 223.956 251.303 223.344 249.259C223.012 248.21 222.596 247.19 222.1 246.208C221.747 245.455 221.302 243.98 220.655 243.452C220.528 243.343 220.375 243.269 220.21 243.238C219.904 242.591 219.469 242.014 218.93 241.542C217.92 240.63 216.686 239.906 216.011 238.727C215.826 238.318 215.597 237.93 215.329 237.569C214.873 237.069 214.152 236.865 213.732 236.337C213.184 235.655 213.308 234.677 213.378 233.807C213.449 232.938 213.378 231.897 212.622 231.439C212.17 231.161 211.587 231.189 211.117 230.943C210.41 230.591 210.131 229.704 210.145 228.913C210.159 228.121 210.406 227.35 210.47 226.559C210.668 224.039 209 221.534 209.643 219.092C209.887 218.166 210.445 217.364 210.859 216.502C211.003 216.215 211.121 215.916 211.212 215.608C212.315 216.043 213.474 216.322 214.654 216.435C212.707 212.086 213.202 207.033 212.293 202.36L212.41 202.201C213.327 200.997 213.848 199.539 213.901 198.028C213.901 196.29 213.085 194.664 212.718 192.961C212.403 191.515 212.417 190.002 212.011 188.58C211.729 187.697 211.354 186.845 210.894 186.039C210.453 185.225 209.99 184.424 209.505 183.636C209.053 182.144 208.599 180.652 208.144 179.16C207.508 177.066 206.855 174.938 205.618 173.129C205.165 172.467 205.027 171.123 204.331 170.722C203.766 170.431 203.125 170.319 202.494 170.402C201.511 169.853 200.649 169.061 200.525 167.977C200.513 167.74 200.537 167.503 200.596 167.274H200.716C202.271 167.133 203.059 165.767 203.868 164.571C205.176 162.636 204.678 160.018 203.868 157.815C203.668 157.12 203.304 156.482 202.808 155.953C201.674 154.898 199.878 155.13 198.415 154.62C197.924 154.451 197.465 154.194 196.963 154.074C195.991 153.849 194.973 154.166 194.083 154.613C193.192 155.06 192.361 155.637 191.428 155.989C190.495 156.341 189.343 156.619 189.114 157.572C189.049 157.893 189.076 158.226 189.191 158.533C189.406 159.145 189.783 159.687 190.283 160.102C189.886 160.918 189.671 161.809 189.654 162.715C189.636 163.622 189.816 164.521 190.181 165.351C190.546 166.181 191.088 166.923 191.769 167.525C192.45 168.126 193.254 168.574 194.125 168.836C194.393 169.265 194.644 169.702 194.874 170.148C195.284 170.937 195.63 171.866 195.489 172.71C195.233 172.981 194.997 173.269 194.782 173.572C193.768 174.98 193.192 176.63 192.662 178.277C191.95 180.38 191.379 182.527 190.955 184.706C190.093 186.532 189.039 188.277 188.414 190.195C187.294 190.197 186.179 190.047 185.099 189.752L182.116 189.08C181.077 188.844 179.996 188.591 179.183 187.908C178.752 187.556 178.416 187.088 177.978 186.74C177.54 186.391 176.66 185.983 176.179 186.272C176.091 186.325 176.009 186.387 175.935 186.458C175.497 185.575 175.08 184.699 174.571 183.844C173.839 182.647 172.751 181.553 171.373 181.324C170.531 181.189 169.669 181.389 168.973 181.88C168.167 182.45 167.662 183.64 168.266 184.442C168.417 184.62 168.581 184.787 168.757 184.942C169.167 185.411 169.532 185.916 169.849 186.451C170.989 188.043 172.693 189.145 174.617 189.534L174.493 189.885C174.242 190.617 173.709 191.501 173.843 192.261L187.11 196.782C187.961 197.126 188.864 197.325 189.782 197.37C190.139 197.367 190.496 197.32 190.842 197.229V197.905V197.933C190.877 202.574 190.135 207.184 189.997 211.822C189.972 212.67 189.997 213.581 190.534 214.243C191.135 214.968 192.202 215.112 193.132 214.947C193.356 214.909 193.575 214.86 193.789 214.799C194.104 215.966 194.33 217.155 194.468 218.356L195.344 224.641C195.457 225.284 195.503 225.937 195.482 226.59C195.379 228.065 194.598 229.384 194.033 230.746C193.468 232.108 193.132 233.737 193.874 235.011C194.107 235.405 194.429 235.739 194.637 236.147C194.902 236.779 195.023 237.462 194.991 238.146C195.045 240.042 195.097 241.939 195.146 243.84C194.992 243.814 194.834 243.846 194.701 243.928C193.966 244.498 194.047 247.211 193.994 248.052C193.938 249.459 193.994 250.895 193.916 252.316C193.825 254.232 193.515 256.132 192.994 257.978C192.867 258.578 192.588 259.137 192.185 259.6C191.771 259.958 191.278 260.213 190.746 260.343C188.986 260.892 187.144 261.142 185.3 261.082C184.555 261.057 183.777 260.987 183.085 261.268C182.392 261.55 181.833 262.324 182.084 263.028C182.3 263.619 182.954 263.9 183.544 264.122C184.892 264.595 186.194 265.191 187.431 265.903C187.908 266.226 188.41 266.509 188.933 266.751C189.435 266.93 189.954 267.057 190.481 267.131L196.747 268.207C198.03 268.426 199.574 268.559 200.391 267.504C200.833 266.934 200.896 266.159 200.875 265.435C200.84 264.027 200.557 262.595 200.741 261.187C200.88 260.355 201.1 259.539 201.398 258.749C202.022 256.903 202.649 255.058 203.278 253.214C203.907 251.363 204.543 249.494 204.787 247.552C204.875 246.848 204.868 246.046 204.328 245.606C204.191 245.494 204.032 245.413 203.861 245.367C203.84 243.671 203.617 241.971 203.713 240.275C203.738 239.853 203.78 239.43 203.815 239.005C204.143 239.315 204.436 239.659 204.688 240.032C205.293 240.975 205.515 242.221 206.438 242.847C207.222 243.382 208.385 243.354 208.936 244.128C209.113 244.425 209.247 244.747 209.332 245.082C209.652 245.911 210.132 246.67 210.746 247.316C210.956 248.089 211.249 248.836 211.618 249.547C212.139 250.643 212.657 251.735 213.173 252.823C213.704 253.998 214.294 255.145 214.94 256.261C215.434 256.963 215.832 257.728 216.124 258.534C216.623 260.272 215.81 262.18 214.523 263.461C213.237 264.741 211.541 265.477 209.869 266.163C209.693 266.222 209.532 266.318 209.396 266.444C209.251 266.615 209.174 266.833 209.18 267.057C209.18 267.87 209.851 268.566 210.622 268.816C211.409 269.027 212.235 269.057 213.036 268.904C217.552 268.359 222.055 267.261 226.048 265.076C226.645 264.794 227.175 264.387 227.599 263.883C227.805 263.629 227.937 263.324 227.982 263.002C228.028 262.679 227.985 262.35 227.857 262.049Z" fill="url(#paint0_linear_785_1524)"/>
    <path d="M208.892 183.484C209.643 184.623 210.347 185.789 211.004 186.983C211.464 187.773 211.838 188.609 212.12 189.477C212.528 190.868 212.518 192.353 212.824 193.772C213.176 195.441 214 197.034 214 198.745C213.946 200.228 213.427 201.657 212.514 202.835C211.604 204.003 210.563 205.065 209.409 206C206.751 199.196 205.266 192.001 205.016 184.712C204.98 183.703 204.973 182.664 205.347 181.721C205.575 181.13 206.674 179.509 207.381 180.146C207.638 180.379 207.705 181.429 207.864 181.78C208.16 182.374 208.504 182.944 208.892 183.484Z" fill="#2F2E41"/>
    <path opacity="0.1" d="M208.892 183.484C209.643 184.623 210.347 185.789 211.004 186.983C211.464 187.773 211.838 188.609 212.12 189.477C212.528 190.868 212.518 192.353 212.824 193.772C213.176 195.441 214 197.034 214 198.745C213.946 200.228 213.427 201.657 212.514 202.835C211.604 204.003 210.563 205.065 209.409 206C206.751 199.196 205.266 192.001 205.016 184.712C204.98 183.703 204.973 182.664 205.347 181.721C205.575 181.13 206.674 179.509 207.381 180.146C207.638 180.379 207.705 181.429 207.864 181.78C208.16 182.374 208.504 182.944 208.892 183.484Z" fill="black"/>
    <path d="M115.958 134.855C113.155 137.627 112.818 138.848 111.134 139.399C109.45 139.95 103.392 143.055 105.296 146.497L110.415 149.844L110.563 149.942L111.347 152.272L103.605 165.913C103.605 165.913 90.8443 160.138 89.593 168.682C88.3417 177.225 89.1357 179.558 88.799 184.12C88.4623 188.681 88.9089 190 87.7852 190C86.6615 190 86.2185 187.004 86.2185 187.004C86.2185 187.004 86.1476 186.867 86.0235 186.611C84.3539 183.176 73.0216 157.959 91.1739 140.627C91.1739 140.627 99.5819 140.08 101.606 130.536C103.003 123.94 107.887 124.508 111.134 125.852C112.189 126.262 113.173 126.834 114.048 127.547C114.835 128.285 115.536 129.109 116.136 130.003C117.061 131.448 117.564 133.262 115.958 134.855Z" fill="#ABBAF5"/>
    <path opacity="0.1" d="M111.22 150.08L112 152.402L104.291 165.997C104.291 165.997 91.5833 160.241 90.3373 168.755C89.0912 177.269 89.8819 179.594 89.5466 184.14C89.2112 188.685 89.656 190 88.537 190C87.4181 190 86.9769 187.014 86.9769 187.014C86.9769 187.014 86.9062 186.878 86.7827 186.622C86.2215 182.371 83.3764 157.5 93.6906 158.822C93.6906 158.822 102.06 162.696 103.398 161.15C104.457 159.927 109.158 152.888 111.072 150L111.22 150.08Z" fill="black"/>
    <path opacity="0.1" d="M116 130.277L111.026 136.214C111.026 136.214 105.25 144.333 104.052 143.989C103.693 143.907 103.327 143.862 102.96 143.856C102.56 143.823 102.177 143.673 101.855 143.421C101.533 143.17 101.286 142.828 101.142 142.435C100.998 142.042 100.963 141.614 101.04 141.2C101.118 140.787 101.306 140.406 101.582 140.1C103.552 137.929 107.182 133.808 107.42 132.893C107.658 131.977 109.969 127.965 111.126 126C112.152 126.422 113.107 127.012 113.958 127.748C114.727 128.507 115.413 129.355 116 130.277Z" fill="black"/>
    <path d="M258.7 212.814C257.842 214.532 253.446 220.974 251.523 223.788L250.623 225.113C250.623 225.113 250.273 227.44 244.532 224.556C238.792 221.671 103.914 164.719 103.914 164.719L103 161.972L109.655 152L257.484 209.155C257.484 209.155 259.81 210.595 258.7 212.814Z" fill="#454B69"/>
    <path opacity="0.1" d="M251 223.789L250.103 225.113C250.103 225.113 249.754 227.44 244.034 224.556C238.313 221.673 103.911 164.747 103.911 164.747L103 162L251 223.789Z" fill="black"/>
    <path d="M170.255 187.093C168.843 186.885 167.277 186.986 166.179 187.814C165.516 188.322 165.097 189.042 165.01 189.823C164.916 190.727 165.497 191.8 166.501 191.868C166.742 191.871 166.984 191.857 167.223 191.826C167.857 191.823 168.49 191.871 169.114 191.969C170.344 192.074 171.583 191.91 172.728 191.493C173.873 191.075 174.89 190.415 175.695 189.569C176.558 188.59 175.42 188.166 174.403 187.971C173.009 187.703 171.648 187.296 170.255 187.093Z" fill="#FBBEBE"/>
    <path d="M194.306 219.046L195.154 225.341C195.261 225.991 195.305 226.65 195.283 227.309C195.184 228.792 194.429 230.121 193.886 231.493C193.343 232.865 193.012 234.508 193.733 235.78C193.955 236.177 194.266 236.516 194.467 236.927C194.723 237.562 194.84 238.249 194.809 238.938L195.041 247.87C197.678 248.058 200.324 248.042 202.958 247.823C203.061 247.828 203.163 247.795 203.245 247.73C203.315 247.638 203.35 247.523 203.344 247.405C203.461 245.315 203.112 243.222 203.225 241.132C203.266 240.367 203.368 239.606 203.382 238.838C203.423 235.726 201.954 232.679 202.398 229.603C202.538 228.827 202.72 228.06 202.945 227.306C204.349 221.947 204.051 216.316 203.741 210.782C203.746 210.693 203.722 210.605 203.672 210.532C203.622 210.48 203.558 210.444 203.488 210.429C201.994 209.96 200.413 209.874 198.881 210.179C197.348 210.483 195.908 211.17 194.682 212.179C194.31 212.494 193.371 212.797 193.125 213.173C192.783 213.694 193.231 214.216 193.429 214.77C193.867 216.158 194.162 217.592 194.306 219.046Z" fill="#3F3D56"/>
    <path opacity="0.1" d="M194.306 219.046L195.154 225.341C195.261 225.991 195.305 226.65 195.283 227.309C195.184 228.792 194.429 230.121 193.886 231.493C193.343 232.865 193.012 234.508 193.733 235.78C193.955 236.177 194.266 236.516 194.467 236.927C194.723 237.562 194.84 238.249 194.809 238.938L195.041 247.87C197.678 248.058 200.324 248.042 202.958 247.823C203.061 247.828 203.163 247.795 203.245 247.73C203.315 247.638 203.35 247.523 203.344 247.405C203.461 245.315 203.112 243.222 203.225 241.132C203.266 240.367 203.368 239.606 203.382 238.838C203.423 235.726 201.954 232.679 202.398 229.603C202.538 228.827 202.72 228.06 202.945 227.306C204.349 221.947 204.051 216.316 203.741 210.782C203.746 210.693 203.722 210.605 203.672 210.532C203.622 210.48 203.558 210.444 203.488 210.429C201.994 209.96 200.413 209.874 198.881 210.179C197.348 210.483 195.908 211.17 194.682 212.179C194.31 212.494 193.371 212.797 193.125 213.173C192.783 213.694 193.231 214.216 193.429 214.77C193.867 216.158 194.162 217.592 194.306 219.046Z" fill="black"/>
    <path d="M210.292 216.096C209.874 216.942 209.313 217.729 209.062 218.638C208.412 221.037 210.095 223.514 209.895 225.972C209.831 226.749 209.584 227.505 209.566 228.281C209.549 229.058 209.842 229.922 210.549 230.28C211.025 230.517 211.622 230.493 212.068 230.764C212.823 231.214 212.908 232.234 212.833 233.091C212.758 233.947 212.633 234.905 213.191 235.574C213.616 236.093 214.345 236.295 214.803 236.786C215.075 237.138 215.306 237.519 215.492 237.921C216.175 239.084 217.423 239.795 218.445 240.707C219.467 241.62 220.332 242.957 219.874 244.221C219.538 245.147 218.595 245.719 217.687 246.154C216.031 246.952 214.282 247.554 212.479 247.948C212.286 248.005 212.081 248.015 211.883 247.979C211.681 247.907 211.502 247.788 211.361 247.631C210.306 246.624 209.216 245.569 208.73 244.214C208.644 243.886 208.509 243.571 208.33 243.281C207.772 242.518 206.596 242.546 205.803 242.02C204.874 241.404 204.648 240.181 204.041 239.258C203.433 238.336 202.543 237.785 201.896 236.974C200.802 235.623 200.534 233.819 199.752 232.276C199.419 231.621 198.994 231.008 198.729 230.326C198.463 229.507 198.298 228.661 198.24 227.804C197.736 223.736 196.453 219.641 197.26 215.615C197.439 214.73 197.714 213.874 197.829 212.961C198.025 211.384 197.714 209.768 197.954 208.194C197.96 207.996 198.011 207.802 198.105 207.627C198.198 207.451 198.331 207.299 198.494 207.18C198.687 207.096 198.897 207.054 199.108 207.058C201.227 206.948 203.352 206.994 205.463 207.198C206.536 207.299 207.736 207.511 208.38 208.364C208.927 209.096 208.898 210.074 209.073 210.962C209.291 212.056 209.86 212.651 210.456 213.508C211.053 214.365 210.732 215.211 210.292 216.096Z" fill="#3F3D56"/>
    <path d="M202.874 245.44C203.437 245.44 204.061 245.405 204.496 245.752C205.038 246.185 205.045 246.979 204.96 247.654C204.71 249.554 204.072 251.38 203.434 253.2L201.537 258.61C201.236 259.382 201.014 260.18 200.874 260.994C200.688 262.38 200.973 263.767 201.009 265.153C201.009 265.846 200.963 266.615 200.517 267.173C199.711 268.182 198.139 268.064 196.844 267.866L190.53 266.827C189.997 266.758 189.474 266.633 188.968 266.456C188.441 266.219 187.934 265.942 187.453 265.628C186.203 264.934 184.89 264.354 183.531 263.895C182.939 263.68 182.276 263.406 182.062 262.827C181.809 262.134 182.372 261.372 183.071 261.094C183.77 260.817 184.55 260.887 185.306 260.907C187.165 260.965 189.021 260.721 190.797 260.186C191.332 260.059 191.829 259.809 192.245 259.459C192.668 258.997 192.956 258.433 193.079 257.826C193.617 256.02 193.938 254.159 194.035 252.281C194.11 250.895 194.06 249.509 194.117 248.122C194.152 247.301 194.07 244.657 194.812 244.092C195.379 243.669 197.711 244.837 198.477 245.007C199.919 245.328 201.396 245.473 202.874 245.44Z" fill="#2F2E41"/>
    <path d="M222.548 248.845C223.132 250.814 223.224 252.896 223.602 254.919C223.981 256.943 224.65 259.007 226.127 260.416C226.414 260.648 226.662 260.927 226.86 261.241C226.985 261.535 227.027 261.858 226.983 262.175C226.938 262.492 226.808 262.791 226.607 263.037C226.199 263.526 225.693 263.921 225.123 264.195C221.307 266.311 217.011 267.38 212.681 267.909C211.916 268.055 211.129 268.025 210.376 267.823C209.639 267.569 208.987 266.895 209 266.105C208.993 265.888 209.066 265.677 209.203 265.511C209.335 265.389 209.49 265.296 209.66 265.239C211.255 264.573 212.874 263.848 214.108 262.618C215.341 261.388 216.115 259.526 215.639 257.857C215.357 257.075 214.974 256.334 214.5 255.654C213.882 254.574 213.318 253.463 212.81 252.325L211.323 249.154C210.887 248.227 210.447 247.272 210.373 246.248C212.241 246.333 214.107 246.029 215.855 245.355C216.671 245.016 217.432 244.553 218.11 243.98C218.684 243.493 219.208 242.582 219.982 243.218C220.604 243.726 220.996 245.159 221.361 245.884C221.835 246.836 222.232 247.827 222.548 248.845Z" fill="#2F2E41"/>
    <path d="M200.246 168.57C200.403 169.955 201.732 170.867 203 171.415L194.972 174C195.49 172.998 195.072 171.772 194.558 170.755C194.139 169.95 193.661 169.178 193.129 168.444C193.05 168.332 192.961 168.192 193.018 168.062C193.069 167.977 193.149 167.914 193.243 167.885C194.894 167.143 196.594 166.375 198.398 166.104C198.92 166.029 199.906 165.82 200.296 166.353C200.685 166.887 200.171 167.932 200.246 168.57Z" fill="#FBBEBE"/>
    <path opacity="0.1" d="M200.246 168.57C200.403 169.955 201.732 170.867 203 171.415L194.972 174C195.49 172.998 195.072 171.772 194.558 170.755C194.139 169.95 193.661 169.178 193.129 168.444C193.05 168.332 192.961 168.192 193.018 168.062C193.069 167.977 193.149 167.914 193.243 167.885C194.894 167.143 196.594 166.375 198.398 166.104C198.92 166.029 199.906 165.82 200.296 166.353C200.685 166.887 200.171 167.932 200.246 168.57Z" fill="black"/>
    <path d="M196.5 171C200.09 171 203 168.09 203 164.5C203 160.91 200.09 158 196.5 158C192.91 158 190 160.91 190 164.5C190 168.09 192.91 171 196.5 171Z" fill="#FBBEBE"/>
    <path d="M190.519 213.885C191.107 214.596 192.143 214.735 193.048 214.579C195.165 214.232 196.896 212.662 198.968 212.097C201.507 211.403 204.195 212.294 206.594 213.386C208.993 214.478 211.378 215.813 214 216C211.629 210.675 212.985 204.269 210.717 198.899C210.163 197.585 209.388 196.32 209.265 194.899C209.11 193.134 209.984 191.432 210.118 189.678C210.242 188.115 209.774 186.558 209.327 185.067C208.774 183.237 208.221 181.407 207.668 179.576C207.048 177.527 206.412 175.444 205.211 173.683C204.767 173.035 204.632 171.721 203.958 171.329C202.485 170.473 200.251 171.551 198.655 171.61C197.058 171.669 195.602 172.813 194.669 174.106C193.682 175.472 193.121 177.098 192.604 178.706C191.782 181.101 191.169 183.564 190.77 186.066C190.719 186.44 190.674 186.815 190.639 187.192C190.295 190.753 190.798 194.334 190.825 197.911V197.935C190.86 202.473 190.137 206.983 190.003 211.518C189.989 212.346 190.01 213.251 190.519 213.885Z" fill="#2F2E41"/>
    <path opacity="0.1" d="M190.308 197C191.51 196.703 192.597 195.94 193.531 195.106C194.339 194.395 195.058 193.592 195.67 192.712C196.44 191.53 197.059 190.259 197.513 188.927C198.802 185.367 199.622 181.659 199.951 177.894C200.042 176.868 200.07 175.767 199.446 174.954C199.096 174.513 198.604 174.201 198.051 174.07C197.497 173.938 196.915 173.994 196.398 174.229C195.576 174.622 195.043 175.419 194.548 176.181C193.569 177.692 192.583 179.224 191.953 180.906C191.674 181.652 191.468 182.418 191.197 183.166C190.92 183.905 190.602 184.627 190.242 185.331C190.19 185.7 190.144 186.069 190.11 186.442C189.786 189.953 190.28 193.471 190.308 197Z" fill="black"/>
    <path d="M200.433 174.954C201.07 175.762 201.042 176.865 200.953 177.87C200.617 181.609 199.78 185.292 198.462 188.827C198.003 190.161 197.371 191.434 196.58 192.617C195.953 193.489 195.22 194.287 194.395 194.993C193.185 196.046 191.712 196.986 190.072 197C189.149 196.959 188.239 196.769 187.382 196.44L174.021 192.1C173.886 191.374 174.424 190.525 174.676 189.826L175.388 187.812C175.591 187.255 175.825 186.654 176.356 186.352C176.886 186.05 177.725 186.464 178.167 186.8C178.608 187.136 178.942 187.578 179.376 187.921C180.198 188.573 181.284 188.817 182.33 189.041L185.329 189.683C186.416 189.967 187.539 190.11 188.667 190.107C189.503 187.669 191.093 185.524 191.993 183.106C192.271 182.366 192.481 181.602 192.769 180.862C193.409 179.191 194.42 177.673 195.42 176.169C195.921 175.416 196.466 174.624 197.309 174.231C197.839 173.995 198.436 173.938 199.004 174.069C199.572 174.201 200.076 174.513 200.433 174.954Z" fill="#2F2E41"/>
    <path d="M197.479 165.023C197.434 164.621 197.311 164.232 197.118 163.878C197.018 163.701 196.865 163.561 196.681 163.479C196.497 163.396 196.293 163.376 196.097 163.42C195.498 163.611 195.297 164.555 194.67 164.586C194.248 164.607 193.945 164.17 193.813 163.76C193.68 163.351 193.608 162.882 193.292 162.594C193.071 162.426 192.818 162.308 192.55 162.247C191.096 161.779 189.595 160.914 189.111 159.44C188.997 159.14 188.97 158.814 189.033 158.499C189.254 157.566 190.395 157.284 191.263 156.948C192.131 156.611 192.965 156.035 193.816 155.598C194.667 155.161 195.654 154.852 196.59 155.074C197.066 155.226 197.533 155.403 197.99 155.605C199.399 156.105 201.125 155.872 202.218 156.91C202.695 157.424 203.045 158.048 203.239 158.728C204.002 160.887 204.485 163.448 203.222 165.343C202.443 166.512 201.687 167.848 200.189 167.99C198.446 168.14 197.755 166.529 197.479 165.023Z" fill="#2F2E41"/>
    <g opacity="0.1">
        <path d="M195.187 163.273C195.045 162.82 194.969 162.302 194.635 161.984C194.4 161.798 194.131 161.667 193.844 161.6C192.291 161.082 190.694 160.127 190.175 158.496C190.056 158.164 190.029 157.804 190.095 157.457C190.13 157.293 190.196 157.138 190.287 157C189.696 157.272 189.18 157.633 189.035 158.27C188.968 158.618 188.997 158.979 189.119 159.31C189.634 160.94 191.235 161.895 192.784 162.413C193.071 162.48 193.341 162.611 193.576 162.797C193.913 163.115 193.986 163.63 194.131 164.086C194.276 164.543 194.595 165.022 195.045 164.999C195.496 164.976 195.713 164.543 196 164.178C195.604 164.124 195.318 163.695 195.187 163.273Z" fill="black"/>
        <path d="M201.136 167.172C199.278 167.356 198.545 165.523 198.245 163.835C198.205 163.382 198.082 162.943 197.883 162.542C197.776 162.343 197.614 162.185 197.419 162.092C197.224 161.999 197.007 161.976 196.799 162.025C196.469 162.199 196.192 162.47 196 162.809C196.166 162.826 196.326 162.884 196.468 162.979C196.609 163.075 196.729 163.204 196.817 163.357C197.022 163.756 197.152 164.196 197.2 164.65C197.493 166.338 198.227 168.175 200.092 167.987C200.829 167.899 201.509 167.516 202 166.913C201.727 167.051 201.435 167.139 201.136 167.172Z" fill="black"/>
    </g>
    <path d="M274.5 232C280.851 232 286 231.105 286 230C286 228.895 280.851 228 274.5 228C268.149 228 263 228.895 263 230C263 231.105 268.149 232 274.5 232Z" fill="#4056A1"/>
    <path d="M273.5 230C274.328 230 275 229.328 275 228.5C275 227.672 274.328 227 273.5 227C272.672 227 272 227.672 272 228.5C272 229.328 272.672 230 273.5 230Z" fill="#3F3D56"/>
    <path d="M273.5 229C274.328 229 275 228.328 275 227.5C275 226.672 274.328 226 273.5 226C272.672 226 272 226.672 272 227.5C272 228.328 272.672 229 273.5 229Z" fill="#3F3D56"/>
    <path d="M273.5 226C274.328 226 275 225.328 275 224.5C275 223.672 274.328 223 273.5 223C272.672 223 272 223.672 272 224.5C272 225.328 272.672 226 273.5 226Z" fill="#3F3D56"/>
    <path d="M273.5 224C274.328 224 275 223.328 275 222.5C275 221.672 274.328 221 273.5 221C272.672 221 272 221.672 272 222.5C272 223.328 272.672 224 273.5 224Z" fill="#3F3D56"/>
    <path d="M273.5 222C274.328 222 275 221.328 275 220.5C275 219.672 274.328 219 273.5 219C272.672 219 272 219.672 272 220.5C272 221.328 272.672 222 273.5 222Z" fill="#3F3D56"/>
    <path d="M273.5 220C274.328 220 275 219.328 275 218.5C275 217.672 274.328 217 273.5 217C272.672 217 272 217.672 272 218.5C272 219.328 272.672 220 273.5 220Z" fill="#3F3D56"/>
    <path d="M273.5 218C274.328 218 275 217.328 275 216.5C275 215.672 274.328 215 273.5 215C272.672 215 272 215.672 272 216.5C272 217.328 272.672 218 273.5 218Z" fill="#3F3D56"/>
    <path d="M278.601 202.493C278.786 202.257 278.955 202.009 279.106 201.75L275.54 201.167L279.398 201.192C279.767 200.388 279.967 199.517 279.988 198.633C280.009 197.749 279.85 196.87 279.521 196.05L274.346 198.731L279.117 195.228C278.669 194.459 278.068 193.789 277.35 193.262C276.632 192.735 275.813 192.36 274.944 192.162C274.075 191.965 273.175 191.947 272.299 192.112C271.423 192.276 270.59 192.619 269.853 193.118C269.115 193.618 268.488 194.264 268.012 195.016C267.535 195.767 267.218 196.609 267.081 197.488C266.943 198.368 266.989 199.266 267.214 200.127C267.44 200.987 267.84 201.793 268.391 202.493C268.101 202.859 267.852 203.255 267.647 203.675L272.278 206.078L267.34 204.424C266.996 205.445 266.911 206.536 267.094 207.598C267.278 208.66 267.723 209.66 268.391 210.507C267.638 211.464 267.17 212.613 267.04 213.823C266.91 215.033 267.124 216.255 267.657 217.349C268.19 218.444 269.02 219.367 270.053 220.012C271.086 220.658 272.28 221 273.499 221C274.718 221 275.912 220.658 276.945 220.012C277.979 219.367 278.809 218.444 279.342 217.349C279.875 216.255 280.088 215.033 279.959 213.823C279.829 212.613 279.361 211.464 278.608 210.507C279.51 209.363 280 207.95 280 206.494C280 205.039 279.51 203.626 278.608 202.482L278.601 202.493Z" fill="#4056A1"/>
    <path opacity="0.1" d="M267 206.092C266.999 207.489 267.493 208.845 268.4 209.94C267.647 210.858 267.179 211.959 267.05 213.119C266.92 214.279 267.133 215.451 267.666 216.5C268.199 217.549 269.029 218.434 270.062 219.053C271.094 219.672 272.288 220 273.506 220C274.725 220 275.918 219.672 276.951 219.053C277.984 218.434 278.814 217.549 279.347 216.5C279.879 215.451 280.093 214.279 279.963 213.119C279.833 211.959 279.365 210.858 278.613 209.94C279.475 208.88 267 205.394 267 206.092Z" fill="black"/>
    <path d="M40.5 276C49.6127 276 57 274.657 57 273C57 271.343 49.6127 270 40.5 270C31.3873 270 24 271.343 24 273C24 274.657 31.3873 276 40.5 276Z" fill="#4056A1"/>
    <path d="M41 274C42.1046 274 43 272.881 43 271.5C43 270.119 42.1046 269 41 269C39.8954 269 39 270.119 39 271.5C39 272.881 39.8954 274 41 274Z" fill="#3F3D56"/>
    <path d="M41 271C42.1046 271 43 269.881 43 268.5C43 267.119 42.1046 266 41 266C39.8954 266 39 267.119 39 268.5C39 269.881 39.8954 271 41 271Z" fill="#3F3D56"/>
    <path d="M41 268C42.1046 268 43 266.881 43 265.5C43 264.119 42.1046 263 41 263C39.8954 263 39 264.119 39 265.5C39 266.881 39.8954 268 41 268Z" fill="#3F3D56"/>
    <path d="M41 265C42.1046 265 43 263.881 43 262.5C43 261.119 42.1046 260 41 260C39.8954 260 39 261.119 39 262.5C39 263.881 39.8954 265 41 265Z" fill="#3F3D56"/>
    <path d="M41 262C42.1046 262 43 260.881 43 259.5C43 258.119 42.1046 257 41 257C39.8954 257 39 258.119 39 259.5C39 260.881 39.8954 262 41 262Z" fill="#3F3D56"/>
    <path d="M41 259C42.1046 259 43 257.881 43 256.5C43 255.119 42.1046 254 41 254C39.8954 254 39 255.119 39 256.5C39 257.881 39.8954 259 41 259Z" fill="#3F3D56"/>
    <path d="M41 256C42.1046 256 43 254.881 43 253.5C43 252.119 42.1046 251 41 251C39.8954 251 39 252.119 39 253.5C39 254.881 39.8954 256 41 256Z" fill="#3F3D56"/>
    <path d="M47.0757 232.843C47.3295 232.506 47.5611 232.152 47.769 231.784L42.8398 230.957L48.1711 230.999C48.6821 229.864 48.9607 228.635 48.9899 227.387C49.0191 226.138 48.7983 224.897 48.341 223.739L41.1932 227.533L47.7794 222.587C47.1626 221.496 46.332 220.547 45.3392 219.798C44.3465 219.049 43.2129 218.516 42.0093 218.234C40.8057 217.951 39.5579 217.924 38.3437 218.155C37.1296 218.386 35.9751 218.87 34.9524 219.575C33.9297 220.281 33.0606 221.194 32.3995 222.258C31.7384 223.321 31.2994 224.512 31.1099 225.756C30.9204 227 30.9845 228.27 31.2981 229.488C31.6117 230.706 32.1682 231.844 32.9328 232.833C32.528 233.349 32.1793 233.908 31.8929 234.5L38.2953 237.892L31.47 235.557C30.9916 237.005 30.8761 238.552 31.134 240.057C31.392 241.562 32.0151 242.977 32.9467 244.174C31.9037 245.526 31.2549 247.149 31.0744 248.858C30.8939 250.568 31.189 252.294 31.926 253.841C32.6629 255.388 33.812 256.692 35.2417 257.604C36.6715 258.516 38.3243 259 40.0112 259C41.698 259 43.3508 258.516 44.7806 257.604C46.2104 256.692 47.3595 255.388 48.0964 253.841C48.8334 252.294 49.1285 250.568 48.948 248.858C48.7675 247.149 48.1186 245.526 47.0757 244.174C48.3223 242.56 49 240.565 49 238.511C49 236.456 48.3223 234.461 47.0757 232.847V232.843Z" fill="#4056A1"/>
    <path opacity="0.1" d="M31 238.134C31.0003 240.124 31.6789 242.056 32.9263 243.618C31.8821 244.929 31.2324 246.504 31.0517 248.162C30.8709 249.82 31.1664 251.495 31.9043 252.995C32.6422 254.496 33.7928 255.761 35.2244 256.646C36.656 257.531 38.311 258 40 258C41.689 258 43.344 257.531 44.7756 256.646C46.2072 255.761 47.3578 254.496 48.0957 252.995C48.8336 251.495 49.1291 249.82 48.9483 248.162C48.7676 246.504 48.1179 244.929 47.0737 243.618C48.2711 242.103 31 237.123 31 238.134Z" fill="black"/>
    <defs>
        <linearGradient id="paint0_linear_785_1524" x1="199.897" y1="269.483" x2="195.259" y2="154.021" gradientUnits="userSpaceOnUse">
            <stop stop-color="#AAB9F4"/>
            <stop offset="0.54" stop-color="#808080" stop-opacity="0.12"/>
            <stop offset="1" stop-color="#808080" stop-opacity="0.1"/>
        </linearGradient>
    </defs>
</svg>