<svg width="378" height="53" viewBox="0 0 378 53" fill="none" xmlns="http://www.w3.org/2000/svg">
<path fill-rule="evenodd" clip-rule="evenodd" d="M76.9273 22.2006L93.0094 48.6925H74.4501L64.4254 32.8431L59.7808 37.0773L57.4391 48.6925H41.0667L42.3439 42.4557L52.4654 33.0339L46.0984 23.9171L56.1037 15.1628L49.7367 6.12232L49.7173 6.10325L50.9559 0H67.3283L63.8061 17.2608L82.5783 0H101.699L76.9273 22.2006Z" fill="url(#paint0_linear_204_158)"/>
<path d="M364.625 27.3692C362.225 27.3692 360.116 26.9305 358.316 26.0723C356.497 25.214 355.104 24.0124 354.136 22.4485C353.168 20.8845 352.684 19.0917 352.684 17.07C352.684 14.3807 353.304 11.9776 354.562 9.84144C355.82 7.7053 357.581 6.02691 359.845 4.82533C362.109 3.62375 364.683 3.01343 367.567 3.01343C369.773 3.01343 371.708 3.39488 373.411 4.17686C375.114 4.93977 376.372 6.02691 377.204 7.43829L372.366 11.2337C371.205 9.42184 369.463 8.50635 367.141 8.50635C365.612 8.50635 364.277 8.84966 363.135 9.55535C361.974 10.261 361.084 11.2337 360.426 12.4544C359.787 13.6941 359.458 15.0864 359.458 16.6313C359.458 18.2143 359.98 19.4731 361.025 20.4458C362.071 21.3995 363.483 21.8763 365.264 21.8763C367.528 21.8763 369.463 20.9799 371.07 19.168L375.037 23.0207C373.76 24.5465 372.25 25.6527 370.528 26.3393C368.805 27.0259 366.851 27.3692 364.625 27.3692Z" fill="#333333"/>
<path d="M314.734 3.49023H321.449L317.792 21.6474H329.113L328.029 26.8924H309.973L314.734 3.49023Z" fill="#333333"/>
<path d="M335.441 3.49023H342.157L338.499 21.6474H349.84L348.756 26.8924H330.7L335.441 3.49023Z" fill="#333333"/>
<path d="M298.942 16.4216C298.942 17.2989 298.826 18.2907 298.574 19.3969H285.066C285.298 21.3614 286.692 22.3532 289.246 22.3532C290.059 22.3532 290.853 22.2197 291.627 21.9717C292.381 21.7238 293.078 21.3614 293.697 20.8655L296.368 24.8517C294.22 26.4156 291.607 27.1976 288.53 27.1976C286.595 27.1976 284.873 26.8543 283.402 26.1677C281.912 25.5002 280.77 24.5274 279.976 23.3068C279.164 22.0671 278.757 20.5985 278.757 18.9392C278.757 16.9556 279.241 15.1628 280.17 13.5607C281.118 11.9776 282.415 10.7188 284.098 9.82242C285.802 8.92601 287.717 8.46826 289.885 8.46826C291.723 8.46826 293.33 8.7925 294.684 9.46004C296.058 10.1085 297.104 11.0431 297.839 12.2446C298.574 13.4462 298.942 14.8385 298.942 16.4216ZM289.595 12.9885C288.55 12.9885 287.679 13.2555 286.982 13.8086C286.266 14.3426 285.763 15.1055 285.453 16.0592H293.02C293.039 15.1055 292.73 14.3426 292.091 13.8086C291.472 13.2555 290.62 12.9885 289.595 12.9885Z" fill="#333333"/>
<path d="M266.778 27.1976C265.21 27.1976 263.681 27.026 262.23 26.7017C260.759 26.3584 259.617 25.9388 258.804 25.4239L261.146 20.9799C261.998 21.4949 262.985 21.8954 264.146 22.2006C265.288 22.4867 266.429 22.6393 267.533 22.6393C269.506 22.6393 270.493 22.2197 270.493 21.3423C270.493 20.9799 270.261 20.732 269.797 20.5603C269.332 20.3887 268.578 20.2361 267.571 20.0644C266.217 19.8165 265.094 19.5686 264.223 19.2825C263.352 19.0154 262.598 18.5386 261.94 17.8711C261.282 17.2035 260.953 16.2499 260.953 15.0483C260.953 12.9694 261.862 11.3292 263.681 10.1848C265.5 9.04044 267.861 8.46826 270.764 8.46826C272.061 8.46826 273.338 8.60177 274.558 8.84971C275.777 9.11673 276.841 9.46004 277.751 9.89871L275.467 14.3617C273.938 13.4462 272.119 12.9885 270.01 12.9885C269.023 12.9885 268.268 13.1029 267.784 13.3699C267.3 13.6179 267.049 13.9421 267.049 14.3617C267.049 14.705 267.281 14.972 267.745 15.1437C268.21 15.3153 268.984 15.487 270.048 15.6968C271.364 15.9066 272.448 16.1736 273.319 16.4597C274.19 16.7458 274.945 17.2226 275.583 17.8902C276.241 18.5577 276.551 19.4732 276.551 20.6366C276.551 22.7346 275.641 24.3558 273.803 25.4811C271.984 26.6254 269.642 27.1976 266.778 27.1976Z" fill="#333333"/>
<path d="M256.772 6.7708C255.669 6.7708 254.779 6.46563 254.102 5.85531C253.424 5.26405 253.076 4.50115 253.076 3.62381C253.076 2.57481 253.463 1.71654 254.218 1.02992C254.973 0.343308 255.979 0 257.218 0C258.34 0 259.25 0.28609 259.927 0.85827C260.604 1.43045 260.953 2.15521 260.953 3.05163C260.953 4.13877 260.566 5.03518 259.792 5.7218C259.017 6.40841 258.011 6.7708 256.772 6.7708Z" fill="#333333"/>
<path d="M252.67 8.77344H259.075L255.418 26.8925H249.012L252.67 8.77344Z" fill="#333333"/>
<path d="M248.528 8.77344L244.871 26.8925H238.755L239.123 25.0233C238.349 25.7481 237.458 26.3012 236.471 26.6636C235.484 27.0069 234.478 27.1976 233.433 27.1976C231.42 27.1976 229.814 26.6636 228.634 25.5955C227.453 24.5275 226.853 22.9826 226.853 20.999C226.853 20.2743 226.931 19.5304 227.085 18.7675L229.117 8.77344H235.562L233.665 18.1572C233.588 18.5959 233.53 18.9964 233.53 19.3969C233.53 20.9799 234.362 21.781 236.007 21.781C237.11 21.781 238.039 21.4377 238.755 20.7511C239.49 20.0835 239.974 19.0727 240.245 17.7376L242.084 8.77344H248.528Z" fill="#333333"/>
<path d="M219.867 10.7761C221.396 9.23117 223.621 8.46826 226.505 8.46826L225.382 14.1901C224.821 14.1138 224.337 14.0947 223.931 14.0947C222.479 14.0947 221.318 14.4189 220.447 15.1055C219.576 15.7922 218.996 16.8602 218.706 18.3288L216.944 26.8925H210.5L214.158 8.77342H220.273L219.867 10.7761Z" fill="#333333"/>
<path d="M200.359 27.1976C198.405 27.1976 196.701 26.8543 195.25 26.1677C193.779 25.5002 192.657 24.5274 191.844 23.2877C191.05 22.0289 190.644 20.5794 190.644 18.9392C190.644 16.9556 191.128 15.1628 192.115 13.5797C193.083 11.9967 194.437 10.757 196.179 9.84149C197.921 8.92601 199.875 8.46826 202.043 8.46826C204.133 8.46826 205.933 8.88786 207.442 9.74613C208.952 10.6044 210.074 11.8251 210.771 13.389L205.275 15.9638C204.597 14.3617 203.398 13.5416 201.714 13.5416C200.398 13.5416 199.314 14.0184 198.463 14.953C197.611 15.8875 197.185 17.0891 197.185 18.5577C197.185 19.6448 197.514 20.484 198.134 21.1325C198.753 21.7619 199.643 22.0861 200.785 22.0861C201.656 22.0861 202.411 21.8954 203.069 21.514C203.727 21.1325 204.288 20.5222 204.752 19.7021L209.474 22.5057C208.603 23.9743 207.365 25.1378 205.759 25.9579C204.172 26.778 202.372 27.1976 200.359 27.1976Z" fill="#333333"/>
<path d="M177.717 27.1976C175.781 27.1976 174.078 26.8543 172.627 26.1677C171.175 25.5002 170.072 24.5274 169.279 23.2877C168.485 22.0289 168.079 20.5794 168.079 18.9392C168.079 16.9556 168.563 15.1628 169.55 13.5797C170.517 11.9967 171.853 10.757 173.575 9.84149C175.297 8.92601 177.233 8.46826 179.381 8.46826C181.335 8.46826 183.019 8.81157 184.471 9.47911C185.922 10.1657 187.045 11.1194 187.838 12.3591C188.631 13.5988 189.019 15.0483 189.019 16.6886C189.019 18.6721 188.535 20.465 187.567 22.0671C186.58 23.6501 185.245 24.9089 183.542 25.8244C181.839 26.7399 179.884 27.1976 177.717 27.1976ZM178.084 22.0861C179.381 22.0861 180.426 21.6093 181.239 20.6748C182.071 19.7402 182.477 18.5196 182.477 17.0319C182.477 15.9638 182.168 15.1055 181.548 14.4952C180.948 13.8658 180.097 13.5416 179.013 13.5416C177.717 13.5416 176.671 14.0184 175.859 14.953C175.046 15.8875 174.639 17.1082 174.639 18.634C174.639 19.7021 174.93 20.5413 175.549 21.1516C176.168 21.7619 177 22.0861 178.084 22.0861Z" fill="#333333"/>
<path d="M162.079 10.7761C163.608 9.23117 165.834 8.46826 168.737 8.46826L167.614 14.1901C167.053 14.1138 166.55 14.0947 166.144 14.0947C164.711 14.0947 163.55 14.4189 162.679 15.1055C161.808 15.7922 161.228 16.8602 160.918 18.3288L159.157 26.8925H152.713L156.37 8.77342H162.486L162.079 10.7761Z" fill="#333333"/>
<path d="M152.248 8.77344L148.571 26.8925H142.475L142.843 25.0233C142.049 25.7481 141.159 26.3012 140.172 26.6636C139.185 27.0069 138.179 27.1976 137.134 27.1976C135.121 27.1976 133.534 26.6636 132.334 25.5955C131.154 24.5275 130.554 22.9826 130.554 20.999C130.554 20.2743 130.631 19.5304 130.786 18.7675L132.838 8.77344H139.282L137.385 18.1572C137.289 18.5959 137.25 18.9964 137.25 19.3969C137.25 20.9799 138.063 21.781 139.727 21.781C140.83 21.781 141.74 21.4377 142.475 20.7511C143.191 20.0835 143.694 19.0727 143.965 17.7376L145.785 8.77344H152.248Z" fill="#333333"/>
<path d="M117.123 8.60171L116.349 12.5497H126.896L125.909 17.4896H115.323L114.472 21.7809H126.935L125.851 26.8924H106.808L111.549 3.49023H130.147L129.102 8.60171H117.123Z" fill="#333333"/>
<path d="M149.268 38.6794H145.281L145.649 36.8293H155.867L155.48 38.6794H151.493L149.481 48.6925H147.236L149.268 38.6794Z" fill="#073766"/>
<path d="M158.828 40.7964C159.235 40.3386 159.718 40.0144 160.299 39.8237C160.88 39.633 161.576 39.5376 162.37 39.5376L161.983 41.5593C161.789 41.5212 161.596 41.5021 161.441 41.5021C159.68 41.5021 158.635 42.4176 158.267 44.2295L157.338 48.6925H155.19L157.028 39.633H159.06L158.828 40.7964Z" fill="#073766"/>
<path d="M173.536 39.633L171.717 48.6925H169.665L169.859 47.7579C169.046 48.4636 168.04 48.8069 166.859 48.8069C166.105 48.8069 165.408 48.6543 164.808 48.3301C164.189 48.0249 163.705 47.5672 163.337 46.9569C162.989 46.3465 162.815 45.6409 162.815 44.8207C162.815 43.8099 163.047 42.9135 163.492 42.1124C163.937 41.2923 164.556 40.6629 165.35 40.2051C166.143 39.7665 167.014 39.5376 167.982 39.5376C169.453 39.5376 170.498 40.0144 171.117 40.968L171.388 39.633H173.536ZM167.401 46.995C168.02 46.995 168.562 46.8424 169.027 46.5563C169.511 46.2702 169.878 45.8697 170.169 45.3548C170.44 44.8398 170.575 44.2676 170.575 43.6001C170.575 42.8944 170.362 42.3413 169.936 41.9408C169.511 41.5402 168.911 41.3304 168.137 41.3304C167.537 41.3304 166.995 41.483 166.511 41.7691C166.046 42.0552 165.659 42.4557 165.389 42.9707C165.118 43.4856 164.982 44.0578 164.982 44.7254C164.982 45.4311 165.195 45.9842 165.621 46.3847C166.046 46.7852 166.646 46.995 167.401 46.995Z" fill="#073766"/>
<path d="M181.838 39.5376C182.864 39.5376 183.677 39.8046 184.296 40.3386C184.896 40.8536 185.186 41.6165 185.186 42.5892C185.186 42.8562 185.148 43.2186 185.07 43.6764L184.064 48.6925H181.896L182.903 43.7145C182.941 43.5047 182.98 43.2568 182.98 43.0279C182.98 41.9217 182.361 41.3876 181.122 41.3876C180.348 41.3876 179.69 41.5974 179.168 42.0361C178.645 42.4748 178.297 43.1233 178.123 44.0006L177.155 48.6925H175.007L176.826 39.633H178.877L178.664 40.6438C179.497 39.9 180.542 39.5376 181.838 39.5376Z" fill="#073766"/>
<path d="M190.392 48.8069C189.618 48.8069 188.883 48.7115 188.166 48.5208C187.47 48.3492 186.909 48.1012 186.521 47.8342L187.412 46.194C187.799 46.461 188.283 46.6898 188.844 46.8424C189.424 46.995 190.005 47.0713 190.624 47.0713C191.302 47.0713 191.824 46.995 192.173 46.8043C192.521 46.6136 192.695 46.3465 192.695 46.0032C192.695 45.7171 192.56 45.5264 192.269 45.3929C191.979 45.2785 191.515 45.145 190.876 45.0115C190.218 44.8779 189.695 44.7635 189.27 44.6109C188.844 44.4774 188.495 44.2485 188.186 43.9243C187.876 43.6001 187.721 43.1423 187.721 42.5892C187.721 41.6547 188.128 40.9108 188.921 40.3577C189.715 39.8046 190.779 39.5376 192.095 39.5376C192.734 39.5376 193.353 39.6139 193.934 39.7474C194.534 39.8809 195.017 40.0716 195.404 40.3196L194.611 41.9408C194.243 41.7119 193.798 41.5212 193.334 41.4067C192.85 41.3114 192.385 41.2541 191.902 41.2541C191.224 41.2541 190.702 41.3495 190.353 41.5593C190.005 41.75 189.831 42.017 189.831 42.3413C189.831 42.6464 189.986 42.8562 190.295 42.9897C190.586 43.1233 191.069 43.2568 191.708 43.3903C192.347 43.5047 192.869 43.6382 193.295 43.7908C193.701 43.9243 194.05 44.1532 194.359 44.4774C194.65 44.7826 194.804 45.2213 194.804 45.7553C194.804 46.728 194.398 47.4909 193.605 48.0059C192.792 48.5399 191.727 48.8069 190.392 48.8069Z" fill="#073766"/>
<path d="M203.281 39.5376C204.036 39.5376 204.714 39.6902 205.333 40.0144C205.952 40.3196 206.436 40.7773 206.784 41.3876C207.152 41.9789 207.326 42.6846 207.326 43.5047C207.326 44.5156 207.094 45.412 206.649 46.2321C206.184 47.0332 205.565 47.6626 204.791 48.1203C203.997 48.578 203.127 48.8069 202.159 48.8069C201.443 48.8069 200.804 48.6925 200.262 48.4445C199.721 48.1966 199.314 47.8342 199.004 47.3574L198.076 51.973H195.927L198.424 39.633H200.475L200.282 40.5866C201.095 39.8809 202.082 39.5376 203.281 39.5376ZM201.985 46.995C202.604 46.995 203.146 46.8424 203.61 46.5563C204.094 46.2702 204.462 45.8697 204.733 45.3548C205.023 44.8398 205.159 44.2676 205.159 43.6001C205.159 42.8944 204.946 42.3413 204.52 41.9408C204.094 41.5402 203.494 41.3304 202.72 41.3304C202.12 41.3304 201.578 41.483 201.095 41.7691C200.63 42.0552 200.243 42.4557 199.972 42.9707C199.701 43.4856 199.566 44.0578 199.566 44.7254C199.566 45.4311 199.779 45.9842 200.204 46.3847C200.63 46.7852 201.211 46.995 201.985 46.995Z" fill="#073766"/>
<path d="M213.422 48.8069C212.532 48.8069 211.738 48.6353 211.08 48.311C210.403 47.9677 209.88 47.51 209.513 46.9187C209.145 46.3084 208.971 45.6218 208.971 44.8207C208.971 43.8099 209.203 42.9135 209.667 42.1124C210.132 41.3114 210.771 40.682 211.603 40.2242C212.435 39.7665 213.383 39.5376 214.428 39.5376C215.318 39.5376 216.112 39.6902 216.77 40.0335C217.447 40.3577 217.97 40.8155 218.337 41.4067C218.705 42.017 218.899 42.7037 218.899 43.5047C218.899 44.5156 218.666 45.412 218.183 46.213C217.718 47.0141 217.06 47.6435 216.228 48.1203C215.396 48.578 214.467 48.8069 213.422 48.8069ZM213.557 46.995C214.177 46.995 214.719 46.8424 215.183 46.5563C215.667 46.2702 216.035 45.8697 216.305 45.3548C216.596 44.8398 216.731 44.2676 216.731 43.6001C216.731 42.8944 216.518 42.3413 216.093 41.9408C215.667 41.5402 215.067 41.3304 214.293 41.3304C213.693 41.3304 213.151 41.483 212.667 41.7691C212.203 42.0552 211.816 42.4557 211.545 42.9707C211.274 43.4856 211.138 44.0578 211.138 44.7254C211.138 45.4311 211.351 45.9842 211.777 46.3847C212.203 46.7852 212.783 46.995 213.557 46.995Z" fill="#073766"/>
<path d="M224.086 40.7964C224.492 40.3386 224.976 40.0144 225.556 39.8237C226.137 39.633 226.834 39.5376 227.627 39.5376L227.24 41.5593C227.047 41.5212 226.853 41.5021 226.698 41.5021C224.937 41.5021 223.892 42.4176 223.524 44.2295L222.615 48.6925H220.447L222.286 39.633H224.318L224.086 40.7964Z" fill="#073766"/>
<path d="M231.439 45.66C231.42 45.8316 231.401 45.9651 231.401 46.0414C231.401 46.728 231.768 47.0713 232.485 47.0713C232.949 47.0713 233.336 46.9378 233.704 46.709L234.071 48.2729C233.491 48.6353 232.755 48.807 231.865 48.807C231.072 48.807 230.433 48.5972 229.949 48.1585C229.466 47.7389 229.214 47.1476 229.214 46.3847C229.214 46.1368 229.253 45.9079 229.291 45.679L230.162 41.4068H228.672L229.02 39.7093H230.511L230.936 37.6304H233.084L232.639 39.7093H235.117L234.788 41.4068H232.31L231.439 45.66Z" fill="#073766"/>
<path d="M251.547 43.3713C251.102 44.4775 250.56 45.412 249.941 46.1559L251.102 47.5291L249.67 48.8833L248.509 47.5291C247.289 48.4255 245.935 48.8642 244.445 48.8642C243.632 48.8642 242.916 48.7498 242.296 48.5018C241.677 48.2729 241.193 47.9296 240.864 47.491C240.516 47.0523 240.342 46.5564 240.342 45.9651C240.342 45.145 240.632 44.4203 241.213 43.8099C241.793 43.1805 242.664 42.5893 243.825 42.0362C243.283 41.3305 243.012 40.6248 243.012 39.9C243.012 39.2516 243.167 38.6794 243.496 38.2026C243.845 37.7067 244.29 37.3443 244.87 37.0773C245.432 36.8103 246.09 36.6768 246.786 36.6768C247.696 36.6768 248.431 36.8866 248.992 37.3062C249.534 37.7258 249.825 38.2789 249.825 39.0036C249.825 39.7284 249.573 40.3387 249.051 40.8727C248.547 41.4068 247.754 41.9217 246.709 42.4176L248.78 44.8399C249.205 44.2677 249.573 43.6001 249.883 42.7991L251.547 43.3713ZM246.728 38.2026C246.186 38.2026 245.78 38.3361 245.451 38.6031C245.141 38.8892 244.986 39.2516 244.986 39.7093C244.986 39.9382 245.044 40.1671 245.141 40.3959C245.257 40.6439 245.451 40.9109 245.702 41.2542C246.573 40.8537 247.173 40.5294 247.502 40.2243C247.812 39.9191 247.986 39.5758 247.986 39.1753C247.986 38.8892 247.87 38.6603 247.638 38.4696C247.425 38.2789 247.115 38.2026 246.728 38.2026ZM244.657 47.1286C245.625 47.1286 246.554 46.8234 247.386 46.2322L244.832 43.2378C243.999 43.6192 243.4 43.9816 243.032 44.344C242.664 44.7063 242.49 45.1259 242.49 45.6028C242.49 46.0605 242.683 46.442 243.051 46.709C243.419 46.9951 243.961 47.1286 244.657 47.1286Z" fill="#073766"/>
<path d="M272.68 48.8069C271.79 48.8069 270.997 48.6353 270.339 48.311C269.661 47.9677 269.139 47.51 268.771 46.9187C268.403 46.3084 268.229 45.6218 268.229 44.8207C268.229 43.8099 268.461 42.9135 268.926 42.1124C269.39 41.3114 270.029 40.682 270.861 40.2242C271.693 39.7665 272.642 39.5376 273.687 39.5376C274.577 39.5376 275.351 39.6902 276.028 40.0335C276.706 40.3577 277.228 40.8155 277.596 41.4067C277.964 42.017 278.157 42.7037 278.157 43.5047C278.157 44.5156 277.925 45.412 277.441 46.213C276.977 47.0141 276.319 47.6435 275.486 48.1203C274.654 48.578 273.725 48.8069 272.68 48.8069ZM272.816 46.995C273.435 46.995 273.977 46.8424 274.441 46.5563C274.925 46.2702 275.293 45.8697 275.564 45.3548C275.854 44.8398 275.99 44.2676 275.99 43.6001C275.99 42.8944 275.777 42.3413 275.351 41.9408C274.925 41.5402 274.325 41.3304 273.551 41.3304C272.951 41.3304 272.409 41.483 271.926 41.7691C271.461 42.0552 271.074 42.4557 270.803 42.9707C270.532 43.4856 270.397 44.0578 270.397 44.7254C270.397 45.4311 270.61 45.9842 271.035 46.3847C271.461 46.7852 272.042 46.995 272.816 46.995Z" fill="#073766"/>
<path d="M290.678 39.633L289.111 47.3192C288.762 48.9786 288.124 50.1992 287.195 50.9621C286.266 51.725 285.008 52.1065 283.421 52.1065C281.621 52.1065 280.189 51.6869 279.125 50.8668L280.247 49.2647C280.596 49.5698 281.079 49.8178 281.66 50.0085C282.26 50.1992 282.879 50.2946 283.557 50.2946C284.543 50.2946 285.318 50.0657 285.84 49.6461C286.363 49.2074 286.711 48.559 286.885 47.6816L286.963 47.2239C286.15 47.9296 285.143 48.292 283.963 48.292C283.169 48.292 282.453 48.1394 281.834 47.8342C281.215 47.529 280.731 47.0904 280.383 46.5182C280.015 45.946 279.841 45.2975 279.841 44.5346C279.841 43.6001 280.073 42.7609 280.518 41.998C280.963 41.2351 281.583 40.6438 282.395 40.1861C283.189 39.7474 284.079 39.5376 285.066 39.5376C285.782 39.5376 286.44 39.6711 287.001 39.9381C287.582 40.2051 288.008 40.6057 288.317 41.1206L288.608 39.633H290.678ZM284.447 46.48C285.047 46.48 285.589 46.3465 286.072 46.0795C286.537 45.8316 286.924 45.4501 287.195 44.9924C287.466 44.5156 287.601 43.9815 287.601 43.4093C287.601 42.7609 287.388 42.2459 286.963 41.8835C286.537 41.5212 285.937 41.3304 285.182 41.3304C284.582 41.3304 284.021 41.4639 283.557 41.731C283.073 41.998 282.686 42.3604 282.415 42.8372C282.144 43.2949 282.008 43.8289 282.008 44.4202C282.008 45.0496 282.241 45.5455 282.666 45.9269C283.092 46.3084 283.692 46.48 284.447 46.48Z" fill="#073766"/>
<path d="M293.949 39.633H296.097L294.278 48.6925H292.13L293.949 39.633ZM295.517 38.1453C295.129 38.1453 294.82 38.0309 294.588 37.802C294.355 37.5731 294.22 37.287 294.22 36.9628C294.22 36.5813 294.355 36.2571 294.626 35.9901C294.897 35.7231 295.246 35.6086 295.691 35.6086C296.058 35.6086 296.368 35.704 296.62 35.9329C296.852 36.1427 296.987 36.4097 296.987 36.7339C296.987 37.1535 296.852 37.4968 296.581 37.7448C296.31 38.0118 295.962 38.1453 295.517 38.1453Z" fill="#073766"/>
<path d="M300.703 48.8069C299.929 48.8069 299.193 48.7115 298.477 48.5208C297.781 48.3492 297.219 48.1012 296.832 47.8342L297.723 46.194C298.11 46.461 298.593 46.6898 299.155 46.8424C299.735 46.995 300.316 47.0713 300.935 47.0713C301.612 47.0713 302.135 46.995 302.483 46.8043C302.832 46.6136 303.006 46.3465 303.006 46.0032C303.006 45.7171 302.87 45.5264 302.58 45.3929C302.29 45.2785 301.825 45.145 301.187 45.0115C300.529 44.8779 300.006 44.7635 299.58 44.6109C299.155 44.4774 298.806 44.2485 298.497 43.9243C298.187 43.6001 298.032 43.1423 298.032 42.5892C298.032 41.6547 298.439 40.9108 299.232 40.3577C300.026 39.8046 301.09 39.5376 302.406 39.5376C303.045 39.5376 303.664 39.6139 304.244 39.7474C304.844 39.8809 305.328 40.0716 305.715 40.3196L304.922 41.9408C304.535 41.7119 304.109 41.5212 303.645 41.4067C303.161 41.3114 302.677 41.2541 302.212 41.2541C301.535 41.2541 301.013 41.3495 300.664 41.5593C300.316 41.75 300.142 42.017 300.142 42.3413C300.142 42.6464 300.297 42.8562 300.587 42.9897C300.896 43.1233 301.38 43.2568 302.019 43.3903C302.658 43.5047 303.18 43.6382 303.606 43.7908C304.012 43.9243 304.361 44.1532 304.67 44.4774C304.961 44.7826 305.115 45.2213 305.115 45.7553C305.115 46.728 304.709 47.4909 303.915 48.0059C303.103 48.5399 302.038 48.8069 300.703 48.8069Z" fill="#073766"/>
<path d="M309.934 45.66C309.915 45.8316 309.915 45.9651 309.915 46.0414C309.915 46.728 310.263 47.0713 310.999 47.0713C311.444 47.0713 311.831 46.9378 312.198 46.709L312.566 48.2729C311.986 48.6353 311.25 48.807 310.36 48.807C309.567 48.807 308.928 48.5972 308.444 48.1585C307.96 47.7389 307.728 47.1476 307.728 46.3847C307.728 46.1368 307.747 45.9079 307.786 45.679L308.657 41.4068H307.167L307.515 39.7093H309.005L309.431 37.6304H311.579L311.153 39.7093H313.631L313.282 41.4068H310.805L309.934 45.66Z" fill="#073766"/>
<path d="M316.514 39.633H318.662L316.824 48.6925H314.676L316.514 39.633ZM318.062 38.1453C317.695 38.1453 317.385 38.0309 317.133 37.802C316.901 37.5731 316.785 37.287 316.785 36.9628C316.785 36.5813 316.92 36.2571 317.191 35.9901C317.462 35.7231 317.811 35.6086 318.236 35.6086C318.623 35.6086 318.933 35.704 319.165 35.9329C319.417 36.1427 319.533 36.4097 319.533 36.7339C319.533 37.1535 319.398 37.4968 319.127 37.7448C318.856 38.0118 318.507 38.1453 318.062 38.1453Z" fill="#073766"/>
<path d="M324.72 48.8069C323.81 48.8069 323.017 48.6353 322.339 48.311C321.662 47.9677 321.139 47.51 320.772 46.9187C320.404 46.3084 320.211 45.6218 320.211 44.8207C320.211 43.8099 320.443 42.9135 320.927 42.1124C321.391 41.3114 322.049 40.682 322.881 40.2242C323.713 39.7665 324.662 39.5376 325.726 39.5376C326.655 39.5376 327.448 39.7093 328.126 40.0716C328.784 40.4149 329.306 40.949 329.674 41.6547L327.835 42.5892C327.41 41.75 326.655 41.3304 325.552 41.3304C324.933 41.3304 324.391 41.483 323.926 41.7691C323.442 42.0552 323.075 42.4557 322.804 42.9707C322.513 43.4856 322.378 44.0578 322.378 44.7254C322.378 45.4311 322.591 45.9842 323.017 46.3847C323.442 46.7852 324.042 46.995 324.836 46.995C325.358 46.995 325.823 46.8996 326.249 46.6898C326.674 46.48 327.042 46.1558 327.332 45.7362L328.919 46.7852C328.493 47.4337 327.913 47.9105 327.158 48.2729C326.423 48.6353 325.61 48.8069 324.72 48.8069Z" fill="#073766"/>
<path d="M333.738 48.8069C332.945 48.8069 332.209 48.7115 331.512 48.5208C330.796 48.3492 330.255 48.1012 329.867 47.8342L330.758 46.194C331.145 46.461 331.609 46.6898 332.19 46.8424C332.751 46.995 333.351 47.0713 333.951 47.0713C334.648 47.0713 335.17 46.995 335.518 46.8043C335.867 46.6136 336.041 46.3465 336.041 46.0032C336.041 45.7171 335.886 45.5264 335.596 45.3929C335.306 45.2785 334.841 45.145 334.222 45.0115C333.564 44.8779 333.022 44.7635 332.616 44.6109C332.19 44.4774 331.822 44.2485 331.512 43.9243C331.222 43.6001 331.067 43.1423 331.067 42.5892C331.067 41.6547 331.474 40.9108 332.267 40.3577C333.061 39.8046 334.125 39.5376 335.441 39.5376C336.06 39.5376 336.68 39.6139 337.28 39.7474C337.88 39.8809 338.363 40.0716 338.731 40.3196L337.957 41.9408C337.57 41.7119 337.144 41.5212 336.66 41.4067C336.196 41.3114 335.712 41.2541 335.228 41.2541C334.551 41.2541 334.048 41.3495 333.699 41.5593C333.332 41.75 333.157 42.017 333.157 42.3413C333.157 42.6464 333.312 42.8562 333.622 42.9897C333.932 43.1233 334.396 43.2568 335.035 43.3903C335.693 43.5047 336.215 43.6382 336.622 43.7908C337.028 43.9243 337.396 44.1532 337.686 44.4774C337.996 44.7826 338.131 45.2213 338.131 45.7553C338.131 46.728 337.744 47.4909 336.931 48.0059C336.138 48.5399 335.073 48.8069 333.738 48.8069Z" fill="#073766"/>
<path d="M259.965 36.8293H262.21L260.178 46.8234H266.468L266.1 48.6925H257.566L259.965 36.8293Z" fill="#073766"/>
<path fill-rule="evenodd" clip-rule="evenodd" d="M23.7071 12.3972L23.6297 12.8168H7.27663L7.91527 9.72706H48.9818L48.7109 11.0621L48.4593 12.3019H23.7652L23.7458 12.3972H23.7071ZM8.03139 9.11673L8.65068 6.02696H49.7366L49.0979 9.11673H8.03139ZM8.78615 5.41664L9.40543 2.34594H50.4913L49.8527 5.41664H8.78615ZM9.5409 1.71654L9.88925 0H50.9558L50.6074 1.71654H9.5409ZM23.5136 13.4272L22.8943 16.5169H6.54123L7.16052 13.4272H23.5136ZM22.7782 17.1273L22.5847 18.1H47.2788L46.853 20.217H5.78647L6.40576 17.1273H22.7782ZM46.7369 20.8273L46.0982 23.898H5.03171L5.651 20.8273H46.7369ZM45.9821 24.5084L45.3628 27.5981H4.27696L4.9156 24.5084H45.9821ZM45.2274 28.2085L44.8984 29.8296H20.1656L20.1462 29.9059H20.1075L19.8366 31.2982H3.5222L4.16084 28.2085H45.2274ZM19.7204 31.9086L19.1012 34.9983H2.7868L3.40608 31.9086H19.7204ZM18.985 35.6087L18.8496 36.3144H43.5824L43.0986 38.6984H2.03204L2.65133 35.6087H18.985ZM42.9824 39.3088L42.3632 42.3795H1.27728L1.91592 39.3088H42.9824ZM42.2277 43.0089L41.6084 46.0796H0.522524L1.16116 43.0089H42.2277ZM41.4729 46.6899L41.0665 48.6925H0L0.406408 46.6899H41.4729Z" fill="url(#paint1_linear_204_158)"/>
<defs>
<linearGradient id="paint0_linear_204_158" x1="48.064" y1="24.9654" x2="87.0991" y2="24.9654" gradientUnits="userSpaceOnUse">
<stop stop-color="#4475A6"/>
<stop offset="1" stop-color="#073766"/>
</linearGradient>
<linearGradient id="paint1_linear_204_158" x1="8.14538" y1="23.4466" x2="46.1226" y2="23.4433" gradientUnits="userSpaceOnUse">
<stop stop-color="#CCCCCC"/>
<stop offset="1" stop-color="#333333"/>
</linearGradient>
</defs>
</svg>
