<svg width="25" height="24" viewBox="0 0 25 24" fill="none" xmlns="http://www.w3.org/2000/svg">
<path d="M4.6277 18L7.67353 4" stroke="#667582" stroke-width="2" stroke-linecap="round"/>
<path d="M20.8721 18L17.8263 4" stroke="#667582" stroke-width="2" stroke-linecap="round"/>
<path d="M12.7499 11L12.7499 9" stroke="#667582" stroke-width="2" stroke-linecap="round"/>
<path d="M12.7499 6L12.7499 4" stroke="#667582" stroke-width="2" stroke-linecap="round"/>
<path d="M9.85886 19.551L12.0281 15.0108C12.259 14.5276 12.3744 14.2859 12.5324 14.2096C12.6698 14.1432 12.83 14.1432 12.9674 14.2096C13.1254 14.2859 13.2409 14.5276 13.4718 15.0108L15.641 19.551C15.9918 20.2852 16.1671 20.6523 16.1024 20.8445C16.0466 21.0104 15.908 21.1351 15.7371 21.173C15.5391 21.217 15.1927 21.0037 14.4997 20.5772L13.1693 19.7582L13.1693 19.7582C13.017 19.6644 12.9409 19.6176 12.8594 19.5993C12.7873 19.5831 12.7125 19.5831 12.6404 19.5993C12.5589 19.6176 12.4828 19.6644 12.3305 19.7582L12.3305 19.7582L11.0001 20.5772C10.3072 21.0037 9.96069 21.217 9.76277 21.173C9.59185 21.1351 9.45325 21.0104 9.39738 20.8445C9.33268 20.6523 9.50808 20.2852 9.85886 19.551Z" fill="#667582"/>
</svg>
