<svg width="26" height="24" viewBox="0 0 26 24" fill="none" xmlns="http://www.w3.org/2000/svg">
<path d="M17.8372 11H18.6372C19.7573 11 20.3174 11 20.7452 11.218C21.1215 11.4097 21.4275 11.7157 21.6192 12.092C21.8372 12.5198 21.8372 13.0799 21.8372 14.2V17.8C21.8372 18.9201 21.8372 19.4802 21.6192 19.908C21.4275 20.2843 21.1215 20.5903 20.7452 20.782C20.3174 21 19.7573 21 18.6372 21H7.03722C5.91711 21 5.35706 21 4.92924 20.782C4.55291 20.5903 4.24695 20.2843 4.05521 19.908C3.83722 19.4802 3.83722 18.9201 3.83722 17.8V14.2C3.83722 13.0799 3.83722 12.5198 4.05521 12.092C4.24695 11.7157 4.55291 11.4097 4.92924 11.218C5.35706 11 5.91711 11 7.03722 11H7.83722" stroke="#667582" stroke-width="2" stroke-linecap="round"/>
<path d="M6.33722 21L7.83722 11M19.3372 21L17.8372 11" stroke="#667582" stroke-width="2" stroke-linecap="round"/>
<path d="M12.8372 17L12.8372 14" stroke="#667582" stroke-width="2" stroke-linecap="round"/>
<path d="M13.0205 7V3.5C13.0205 3.2643 13.0205 3.14645 13.0938 3.07322C13.167 3 13.2848 3 13.5205 3H18.0969L16.574 5L18.0969 7H13.0205ZM13.0205 7V10" stroke="#667582" stroke-width="2" stroke-linecap="round" stroke-linejoin="round"/>
</svg>
