<svg width="16" height="14" viewBox="0 0 16 14" fill="none" xmlns="http://www.w3.org/2000/svg">
<path d="M12.3216 8.78983L14.3217 10.5232C14.6796 10.8334 14.6796 11.3888 14.3217 11.699C12.7495 13.0616 10.4653 13.2191 8.7209 12.0853L7.25363 11.1315C5.75865 10.1598 4.4079 8.98246 3.24112 7.63418L2.5219 6.80309C1.1288 5.19327 1.30356 2.75914 2.91235 1.36485C3.15395 1.15546 3.51271 1.15546 3.75431 1.36485L5.79472 3.1332C6.25481 3.53195 6.25481 4.24583 5.79472 4.64458L5.24676 5.11947C5.1035 5.24363 5.06844 5.45197 5.16318 5.61618C6.13952 7.30849 7.63458 8.64165 9.42726 9.41848L9.74533 9.55631C9.90099 9.62376 10.0815 9.596 10.2097 9.48489L11.0117 8.78983C11.3876 8.46408 11.9457 8.46408 12.3216 8.78983Z" stroke="#667582" stroke-width="2"/>
</svg>
