<svg width="18" height="16" viewBox="0 0 18 16" fill="none" xmlns="http://www.w3.org/2000/svg">
<path d="M13.7347 0.666565H3.66651C2.7132 0.667624 1.79926 1.01915 1.12517 1.64404C0.45108 2.26894 0.071874 3.11617 0.0707321 3.9999L0.0707321 11.9999C0.071874 12.8836 0.45108 13.7309 1.12517 14.3558C1.79926 14.9806 2.7132 15.3322 3.66651 15.3332H13.7347C14.688 15.3322 15.6019 14.9806 16.276 14.3558C16.9501 13.7309 17.3293 12.8836 17.3304 11.9999V3.9999C17.3293 3.11617 16.9501 2.26894 16.276 1.64404C15.6019 1.01915 14.688 0.667624 13.7347 0.666565V0.666565ZM3.66651 1.9999H13.7347C14.1653 2.00068 14.5858 2.12091 14.9421 2.3451C15.2984 2.56929 15.5742 2.8872 15.7339 3.2579L10.2266 8.3639C9.82134 8.73811 9.27262 8.94821 8.70059 8.94821C8.12856 8.94821 7.57984 8.73811 7.17454 8.3639L1.66726 3.2579C1.82701 2.8872 2.10279 2.56929 2.45908 2.3451C2.81537 2.12091 3.23589 2.00068 3.66651 1.9999V1.9999ZM13.7347 13.9999H3.66651C3.09431 13.9999 2.54555 13.7892 2.14095 13.4141C1.73635 13.039 1.50904 12.5303 1.50904 11.9999V4.9999L6.15766 9.30657C6.83268 9.93074 7.74717 10.2813 8.70059 10.2813C9.654 10.2813 10.5685 9.93074 11.2435 9.30657L15.8921 4.9999V11.9999C15.8921 12.5303 15.6648 13.039 15.2602 13.4141C14.8556 13.7892 14.3069 13.9999 13.7347 13.9999Z" fill="#667582"/>
</svg>
