<svg width="22" height="24" viewBox="0 0 22 24" fill="none" xmlns="http://www.w3.org/2000/svg">
<path d="M10.9999 24.0003C10.1579 24.0046 9.32703 23.8071 8.57699 23.4243C7.82694 23.0416 7.17952 22.4847 6.68892 21.8003C2.87792 16.5433 0.944923 12.5913 0.944923 10.0533C0.944923 7.38654 2.00429 4.82901 3.88996 2.94333C5.77564 1.05765 8.33317 -0.00170898 10.9999 -0.00170898C13.6667 -0.00170898 16.2242 1.05765 18.1099 2.94333C19.9956 4.82901 21.0549 7.38654 21.0549 10.0533C21.0549 12.5913 19.1219 16.5433 15.3109 21.8003C14.8203 22.4847 14.1729 23.0416 13.4229 23.4243C12.6728 23.8071 11.842 24.0046 10.9999 24.0003ZM10.9999 2.18129C8.91234 2.18367 6.91094 3.01402 5.4348 4.49016C3.95865 5.96631 3.12831 7.96771 3.12592 10.0553C3.12592 12.0653 5.01892 15.7823 8.45492 20.5213C8.74662 20.9231 9.12929 21.2501 9.57164 21.4756C10.014 21.701 10.5034 21.8186 10.9999 21.8186C11.4964 21.8186 11.9859 21.701 12.4282 21.4756C12.8706 21.2501 13.2532 20.9231 13.5449 20.5213C16.9809 15.7823 18.8739 12.0653 18.8739 10.0553C18.8715 7.96771 18.0412 5.96631 16.5651 4.49016C15.0889 3.01402 13.0875 2.18367 10.9999 2.18129Z" fill="#3A4F39"/>
</svg>
