<svg width="100" height="100" viewBox="0 0 100 100" fill="none" xmlns="http://www.w3.org/2000/svg">
<g clip-path="url(#clip0_323_208)">
<path d="M86.13 17.782L81.0354 22.8766C84.6568 25.493 87.8349 28.6711 90.4513 32.2926L95.5459 27.1979L86.13 17.782Z" fill="#D6EAFF"/>
<path d="M56.6657 91.6595C75.9942 91.6595 91.663 75.9908 91.663 56.6623C91.663 37.3338 75.9942 21.665 56.6657 21.665C37.3372 21.665 21.6685 37.3338 21.6685 56.6623C21.6685 75.9908 37.3372 91.6595 56.6657 91.6595ZM53.3326 66.6616L76.4973 43.4968L53.3326 66.6616L42.2384 55.5674L53.3326 66.6616Z" fill="#D6EAFF"/>
<path d="M56.6657 93.3259C76.9141 93.3259 93.3296 76.9105 93.3296 56.6621C93.3296 36.4137 76.9141 19.9983 56.6657 19.9983C36.4174 19.9983 20.0019 36.4137 20.0019 56.6621C20.0254 76.9021 36.4257 93.3025 56.6657 93.3259ZM54.9992 23.4164V28.331C54.9992 29.2509 55.7458 29.9976 56.6657 29.9976C57.5857 29.9976 58.3323 29.2509 58.3323 28.331V23.4164C75.3993 24.2848 89.0433 37.927 89.9114 54.9955H83.3303C82.4104 54.9955 81.6637 55.7422 81.6637 56.6621C81.6637 57.582 82.4104 58.3287 83.3303 58.3287H89.9114C89.0431 75.3974 75.4009 89.0397 58.3323 89.9078V84.9932C58.3323 84.0733 57.5857 83.3266 56.6657 83.3266C55.7458 83.3266 54.9992 84.0733 54.9992 84.9932V89.9078C37.9304 89.0395 24.2882 75.3972 23.42 58.3287H28.3346C29.2545 58.3287 30.0012 57.582 30.0012 56.6621C30.0012 55.7422 29.2545 54.9955 28.3346 54.9955H23.42C24.2882 37.927 37.9306 24.2846 54.9992 23.4164Z" fill="#231F20"/>
<path d="M92.6096 32.4975L96.7242 28.3829C97.3742 27.7329 97.3742 26.6763 96.7242 26.0265L87.3083 16.6105C86.6583 15.9606 85.6017 15.9606 84.9519 16.6105L80.8305 20.7185C74.1643 16.2172 66.3699 13.6741 58.3323 13.3741V3.33316H69.998C70.9179 3.33316 71.6646 2.58649 71.6646 1.66658C71.6646 0.746671 70.9179 0 69.998 0H43.3335C42.4135 0 41.6669 0.746671 41.6669 1.66658C41.6669 2.58649 42.4135 3.33316 43.3335 3.33316H54.9991V13.3891C40.1353 13.9557 26.6063 22.1167 19.1687 34.9974H10.0028C9.08288 34.9974 8.33621 35.7441 8.33621 36.664C8.33621 37.5839 9.08288 38.3306 10.0028 38.3306H20.0021C20.0455 38.3306 20.0822 38.3089 20.1253 38.3056C20.7253 38.314 21.2835 37.9939 21.5802 37.4724C32.1826 18.0939 56.4874 10.9796 75.8659 21.5837C95.2444 32.1879 102.359 56.4909 91.7546 75.8694C81.1504 95.2479 56.8474 102.362 37.4689 91.7581C30.7627 88.0884 25.2481 82.5754 21.5802 75.8694C21.2853 75.3462 20.7302 75.0228 20.1287 75.0278C20.0853 75.0278 20.047 75.0028 20.0021 75.0028H10.0028C9.08288 75.0028 8.33621 75.7495 8.33621 76.6694C8.33621 77.5893 9.08288 78.336 10.0028 78.336H19.1687C31.1277 99.0528 57.6173 106.151 78.3325 94.1915C99.0476 82.2324 106.147 55.7429 94.1879 35.0277C93.6911 34.1656 93.1645 33.3225 92.6096 32.4975ZM83.5504 22.7249L86.1302 20.1451L93.1897 27.2046L90.6099 29.7844C88.5333 27.168 86.1652 24.7964 83.5504 22.7183V22.7249Z" fill="#231F20"/>
<path d="M16.6689 56.6622C16.6689 55.7423 15.9223 54.9956 15.0024 54.9956H1.67009C0.75018 54.9956 0.00350952 55.7423 0.00350952 56.6622C0.00350952 57.5821 0.75018 58.3288 1.67009 58.3288H15.0024C15.9223 58.3288 16.6689 57.5821 16.6689 56.6622Z" fill="#231F20"/>
<path d="M5.00307 48.3295H16.6688C17.5887 48.3295 18.3353 47.5828 18.3353 46.6629C18.3353 45.743 17.5887 44.9963 16.6688 44.9963H5.00307C4.08316 44.9963 3.33649 45.743 3.33649 46.6629C3.33649 47.5828 4.08316 48.3295 5.00307 48.3295Z" fill="#231F20"/>
<path d="M18.3353 66.6615C18.3353 65.7415 17.5887 64.9949 16.6688 64.9949H5.00307C4.08316 64.9949 3.33649 65.7415 3.33649 66.6615C3.33649 67.5814 4.08316 68.328 5.00307 68.328H16.6688C17.5889 68.3278 18.3353 67.5814 18.3353 66.6615Z" fill="#231F20"/>
<path d="M52.1545 67.8397C52.8045 68.4897 53.8611 68.4897 54.5109 67.8397L77.6757 44.6749C78.3157 44.0134 78.2973 42.9583 77.6341 42.3185C76.9874 41.6953 75.9641 41.6953 75.3192 42.3185L53.3326 64.305L43.4167 54.3891C42.7552 53.749 41.7001 53.7674 41.0603 54.4307C40.437 55.0773 40.437 56.1006 41.0603 56.7455L52.1545 67.8397Z" fill="#231F20"/>
</g>
<defs>
<clipPath id="clip0_323_208">
<rect width="100" height="100" fill="white"/>
</clipPath>
</defs>
</svg>
