<svg width="25" height="24" viewBox="0 0 25 24" fill="none" xmlns="http://www.w3.org/2000/svg">
<path d="M19.6235 6L18.1569 7.1C17.8107 7.35964 17.3896 7.5 16.9569 7.5H13.5985C13.001 7.5 12.4547 7.83761 12.1875 8.37206V8.37206C11.8577 9.03161 12.0288 9.83161 12.5996 10.2986L14.5995 11.9349C16.1735 13.2227 16.988 15.22 16.7634 17.2412L16.7171 17.6577C16.6549 18.2177 16.5337 18.7695 16.3555 19.304L16.1235 20" stroke="#667582" stroke-width="2"/>
<path d="M2.62354 10.5L5.86163 9.96032C7.21527 9.73471 8.38883 10.9083 8.16322 12.2619L8.02871 13.069C7.78787 14.514 8.51764 15.9471 9.8279 16.6022V16.6022C10.8771 17.1268 11.4211 18.3097 11.1366 19.4476L10.6235 21.5" stroke="#667582" stroke-width="2"/>
<circle cx="12.1235" cy="12" r="9" stroke="#667582" stroke-width="2"/>
</svg>
